<?xml version="1.0" encoding="UTF-8"?>
<svg width="39px" height="39px" viewBox="0 0 39 39" version="1.1" xmlns="http://www.w3.org/2000/svg" xmlns:xlink="http://www.w3.org/1999/xlink">
    <!-- Generator: Sketch 51.3 (57544) - http://www.bohemiancoding.com/sketch -->
    <title>instagram</title>
    <desc>Created with Sketch.</desc>
    <defs></defs>
    <g id="Page-1" stroke="none" stroke-width="1" fill="none" fill-rule="evenodd">
        <g transform="translate(-294.000000, -919.000000)" fill="#333333" fill-rule="nonzero" id="instagram">
            <g transform="translate(294.000000, 919.000000)">
                <path d="M11.31,0 L27.69,0 C33.93,0 39,5.07 39,11.31 L39,27.69 C39,33.9363405 33.9363405,39 27.69,39 L11.31,39 C5.07,39 0,33.93 0,27.69 L0,11.31 C-4.3298698e-16,5.06365948 5.06365948,1.73194792e-15 11.31,0 Z M10.92,3.9 C7.04296106,3.9 3.9,7.04296106 3.9,10.92 L3.9,28.08 C3.9,31.9605 7.0395,35.1 10.92,35.1 L28.08,35.1 C31.9570389,35.1 35.1,31.9570389 35.1,28.08 L35.1,10.92 C35.1,7.0395 31.9605,3.9 28.08,3.9 L10.92,3.9 Z M29.7375,6.825 C31.0836941,6.825 32.175,7.91630592 32.175,9.2625 C32.175,10.6086941 31.0836941,11.7 29.7375,11.7 C28.3913059,11.7 27.3,10.6086941 27.3,9.2625 C27.3,7.91630592 28.3913059,6.825 29.7375,6.825 Z M19.5,9.75 C24.8847763,9.75 29.25,14.1152237 29.25,19.5 C29.25,24.8847763 24.8847763,29.25 19.5,29.25 C14.1152237,29.25 9.75,24.8847763 9.75,19.5 C9.75,14.1152237 14.1152237,9.75 19.5,9.75 Z M19.5,13.65 C16.2691342,13.65 13.65,16.2691342 13.65,19.5 C13.65,22.7308658 16.2691342,25.35 19.5,25.35 C22.7308658,25.35 25.35,22.7308658 25.35,19.5 C25.35,16.2691342 22.7308658,13.65 19.5,13.65 Z" id="Shape"></path>
            </g>
        </g>
    </g>
</svg>