<?xml version="1.0" encoding="UTF-8"?>
<svg width="1224px" height="706px" viewBox="0 0 1224 706" version="1.1" xmlns="http://www.w3.org/2000/svg" xmlns:xlink="http://www.w3.org/1999/xlink">
    <!-- Generator: Sketch 52.1 (67048) - http://www.bohemiancoding.com/sketch -->
    <title>undraw_programming_2svr</title>
    <desc>Created with Sketch.</desc>
    <defs>
        <path d="M1021.23184,465.040924 C1019.99974,467.694206 1018.77118,470.312112 1017.54616,472.89464 C1015.63427,476.906403 1013.74717,480.840337 1011.88486,484.69644 C1011.05637,486.405154 1010.22789,488.082029 1009.42065,489.758903 C1000.2861,508.406173 991.756971,524.898977 984.513056,538.462557 C971.124603,563.495225 945.140942,579.241474 916.736781,579.535371 L755.660585,581.286537 L753.961133,581.286537 L740.153084,581.435121 L728.341892,581.562478 L692.122319,581.955164 L690.656541,581.955164 L672.217486,582.156814 L671.654542,582.156814 L558.003682,583.387937 L456.557012,584.44925 L444.756441,584.576607 L371.467568,585.372592 L371.382596,585.372592 L323.851044,585.882022 L323.341209,585.882022 L173.045912,587.505831 L128.084781,587.994035 C118.489989,588.102348 108.935635,586.734946 99.7570388,583.93982 C83.7844172,579.118776 69.4296825,570.037242 58.2372992,557.672323 C38.9272745,536.414223 24.8536866,511.611338 15.4004842,484.69644 C14.0338414,480.812035 12.7592523,476.878101 11.5767169,472.89464 C-21.148358,362.35889 18.7462805,219.750262 90.5481327,124.316997 C93.5575791,120.32646 96.6165929,116.434979 99.7251741,112.642554 L99.7995251,112.557648 C121.881781,85.4729406 146.640674,62.8457473 173.014047,46.7562422 C219.74898,18.1963092 271.529162,10.1515566 322.459618,34.1266174 C365.551351,54.4189221 405.78588,63.960126 444.788306,66.5497297 C448.72891,66.8044448 452.669515,66.9954812 456.588876,67.1122256 C546.054409,69.9247051 629.901128,37.7138554 728.363135,16.9227336 C732.282497,16.0949095 736.21248,15.2776984 740.174328,14.50294 C810.414808,0.53606081 888.334688,-6.82945144 980.997315,8.6551053 C990.624267,10.2265516 1000.12386,12.4966944 1009.42065,15.4475085 C1013.50642,16.7635367 1017.44348,18.1786207 1021.23184,19.6927605 C1065.46009,37.6714028 1089.58168,70.8904999 1099.8315,112.515196 C1100.80161,116.378375 1101.64071,120.308771 1102.34882,124.306383 C1120.52233,224.430652 1067.29762,366.455559 1021.23184,465.040924 Z" id="path-1"></path>
        <filter x="-9.1%" y="-13.5%" width="118.2%" height="134.2%" filterUnits="objectBoundingBox" id="filter-2">
            <feOffset dx="0" dy="21" in="SourceAlpha" result="shadowOffsetOuter1"></feOffset>
            <feGaussianBlur stdDeviation="30" in="shadowOffsetOuter1" result="shadowBlurOuter1"></feGaussianBlur>
            <feColorMatrix values="0 0 0 0 0.133333333   0 0 0 0 0.549019608   0 0 0 0 0.858823529  0 0 0 0.15 0" type="matrix" in="shadowBlurOuter1"></feColorMatrix>
        </filter>
        <linearGradient x1="49.9918241%" y1="100%" x2="49.9918241%" y2="-0.0776833077%" id="linearGradient-3">
            <stop stop-color="#808080" stop-opacity="0.25" offset="0%"></stop>
            <stop stop-color="#808080" stop-opacity="0.12" offset="54%"></stop>
            <stop stop-color="#808080" stop-opacity="0.1" offset="100%"></stop>
        </linearGradient>
    </defs>
    <g id="Page-1" stroke="none" stroke-width="1" fill="none" fill-rule="evenodd">
        <g transform="translate(-415.000000, -253.000000)" id="undraw_programming_2svr">
            <g transform="translate(474.000000, 291.000000)">
                <g id="Shape-edit" fill-rule="nonzero">
                    <use fill="black" fill-opacity="1" filter="url(#filter-2)" xlink:href="#path-1"></use>
                    <use fill="#FFFFFF" xlink:href="#path-1"></use>
                </g>
                <path d="M1021.23184,465.040924 C1019.99974,467.694206 1018.77118,470.312112 1017.54616,472.89464 C1015.63427,476.906403 1013.74717,480.840337 1011.88486,484.69644 C1011.05637,486.405154 1010.22789,488.082029 1009.42065,489.758903 C1000.2861,508.406173 991.756971,524.898977 984.513056,538.462557 C971.124603,563.495225 945.140942,579.241474 916.736781,579.535371 L755.660585,581.286537 L753.961133,581.286537 L740.153084,581.435121 L728.341892,581.562478 L692.122319,581.955164 L690.656541,581.955164 L672.217486,582.156814 L671.654542,582.156814 L558.003682,583.387937 L456.557012,584.44925 L444.756441,584.576607 L371.467568,585.372592 L371.382596,585.372592 L323.851044,585.882022 L323.341209,585.882022 L173.045912,587.505831 L128.084781,587.994035 C118.489989,588.102348 108.935635,586.734946 99.7570388,583.93982 C83.7844172,579.118776 69.4296825,570.037242 58.2372992,557.672323 C38.9272745,536.414223 24.8536866,511.611338 15.4004842,484.69644 C14.0338414,480.812035 12.7592523,476.878101 11.5767169,472.89464 C-21.148358,362.35889 18.7462805,219.750262 90.5481327,124.316997 C93.5575791,120.32646 96.6165929,116.434979 99.7251741,112.642554 L99.7995251,112.557648 C121.881781,85.4729406 146.640674,62.8457473 173.014047,46.7562422 C219.74898,18.1963092 271.529162,10.1515566 322.459618,34.1266174 C365.551351,54.4189221 405.78588,63.960126 444.788306,66.5497297 C448.72891,66.8044448 452.669515,66.9954812 456.588876,67.1122256 C546.054409,69.9247051 629.901128,37.7138554 728.363135,16.9227336 C732.282497,16.0949095 736.21248,15.2776984 740.174328,14.50294 C810.414808,0.53606081 888.334688,-6.82945144 980.997315,8.6551053 C990.624267,10.2265516 1000.12386,12.4966944 1009.42065,15.4475085 C1013.50642,16.7635367 1017.44348,18.1786207 1021.23184,19.6927605 C1065.46009,37.6714028 1089.58168,70.8904999 1099.8315,112.515196 C1100.80161,116.378375 1101.64071,120.308771 1102.34882,124.306383 C1120.52233,224.430652 1067.29762,366.455559 1021.23184,465.040924 Z" id="Shape" fill="#228CDB" fill-rule="nonzero" opacity="0.1"></path>
                <g id="Group" opacity="0.1" transform="translate(10.000000, 13.000000)" fill="#228CDB" fill-rule="nonzero">
                    <path d="M162.368779,33.015339 L162.368779,574.195045 L117.41737,574.683532 C107.824652,574.791908 98.2723639,573.423714 89.0957524,570.626967 L89.0957524,98.85487 L89.1700874,98.85487 C111.247569,71.7226117 136.001109,49.0823084 162.368779,33.015339 Z" id="Shape"></path>
                    <path d="M1091.55571,110.621031 L79.9206952,110.621031 C82.929491,106.628182 85.9878434,102.734447 89.0957524,98.9398242 L89.0957524,98.85487 L1089.03894,98.85487 C1090.00883,102.699049 1090.84776,106.621103 1091.55571,110.621031 Z" id="Shape"></path>
                    <path d="M1010.40318,5.94679635 L1010.40318,459.390018 L1006.71829,459.390018 C1004.80682,463.404105 1002.92012,467.340318 1001.05821,471.198656 C1000.22991,472.90836 999.401603,474.586206 998.594538,476.264052 L998.594538,1.65660755 C1002.67942,2.97339817 1006.61563,4.4034611 1010.40318,5.94679635 Z" id="Shape"></path>
                    <path d="M729.40643,0.711491706 L729.40643,568.046483 L717.597791,568.173914 L717.597791,3.13268736 C721.516305,2.30438358 725.445439,1.48669909 729.40643,0.711491706 Z" id="Shape"></path>
                    <path d="M445.882295,53.3512587 L445.882295,571.126073 L434.084276,571.253505 L434.084276,52.7884369 C438.024028,53.0432996 441.963781,53.1919695 445.882295,53.3512587 Z" id="Shape"></path>
                    <path d="M1006.71829,459.400637 C1004.80682,463.414725 1002.92012,467.350937 1001.05821,471.209276 L4.78929492,471.209276 C3.42294766,467.322619 2.14863416,463.386407 0.966354406,459.400637 L1006.71829,459.400637 Z" id="Shape"></path>
                </g>
                <polygon id="Rectangle-path" fill="#3F3D56" fill-rule="nonzero" points="225 283 246 283 246 344 225 344"></polygon>
                <polygon id="Rectangle-path" fill="#3F3D56" fill-rule="nonzero" points="768 280 789 280 789 345 768 345"></polygon>
                <polygon id="Shape" fill="#65617D" fill-rule="nonzero" points="916 566.556701 916 580.494845 754.647715 581.995876 752.927133 582.028041 691.602219 582.596289 690.136539 582.617732 671.496909 582.778557 670.944624 582.778557 557.322536 583.84 370.809406 585.587629 370.650092 585.587629 323.2279 586.037938 322.718098 586.04866 112 588 112 571.917526 161.546367 541.896907 260.957728 541.060619 263.081902 541.049897 263.78288 541.039175 265.907054 541.00701 313.637252 540.610309 315.772048 540.599588 316.451783 540.588866 318.575958 540.578144 333.880634 540.449485 334.284227 540.438763 372.041427 540.117113 372.349432 540.117113 666.972417 537.608247 674.183989 537.554639 674.906209 537.554639 680.40782 537.501031 720.395403 537.16866 722.519577 537.136495 724.484439 537.115052 725.504042 537.115052 737.941083 537.018557 740.405125 536.986392 743.708217 536.964948 754.063567 536.868454 770.494055 536.729072 772.61823 536.707629 776.314293 536.686186 777.00465 536.686186 856.353184 536"></polygon>
                <polygon id="Shape" fill="#000000" fill-rule="nonzero" opacity="0.2" points="916 566.556701 916 580.494845 754.647715 581.995876 752.927133 582.028041 691.602219 582.596289 690.136539 582.617732 671.496909 582.778557 670.944624 582.778557 557.322536 583.84 370.809406 585.587629 370.650092 585.587629 323.2279 586.037938 322.718098 586.04866 112 588 112 571.917526 161.546367 541.896907 260.957728 541.060619 263.081902 541.049897 263.78288 541.039175 265.907054 541.00701 313.637252 540.610309 315.772048 540.599588 316.451783 540.588866 318.575958 540.578144 333.880634 540.449485 334.284227 540.438763 372.041427 540.117113 372.349432 540.117113 666.972417 537.608247 674.183989 537.554639 674.906209 537.554639 680.40782 537.501031 720.395403 537.16866 722.519577 537.136495 724.484439 537.115052 725.504042 537.115052 737.941083 537.018557 740.405125 536.986392 743.708217 536.964948 754.063567 536.868454 770.494055 536.729072 772.61823 536.707629 776.314293 536.686186 777.00465 536.686186 856.353184 536"></polygon>
                <path d="M315,514 L314.999999,539.761095 C315.00119,542.251601 313.528103,544.520116 311.215815,545.588636 C310.372276,545.986559 309.450112,546.201882 308.512826,546.219777 L270.7791,546.998185 C269.771359,547.0217 268.77185,546.81641 267.859872,546.398601 C265.505584,545.348752 263.99723,543.059142 264.000004,540.539503 L264,514 L315,514 Z" id="Shape" fill="#3F3D56" fill-rule="nonzero"></path>
                <path d="M315,514 L314.999999,539.761095 C315.00119,542.251601 313.528103,544.520116 311.215815,545.588636 C310.372276,545.986559 309.450112,546.201882 308.512826,546.219777 L270.7791,546.998185 C269.771359,547.0217 268.77185,546.81641 267.859872,546.398601 C265.505584,545.348752 263.99723,543.059142 264.000004,540.539503 L264,514 L315,514 Z" id="Shape" fill="#000000" fill-rule="nonzero" opacity="0.1"></path>
                <path d="M317,514 L316.999999,539.761095 C317.00119,542.251601 315.528103,544.520116 313.215815,545.588636 C312.372276,545.986559 311.450112,546.201882 310.512826,546.219777 L272.7791,546.998185 C271.771359,547.0217 270.77185,546.81641 269.859872,546.398601 C267.505584,545.348752 265.99723,543.059142 266.000004,540.539503 L266,514 L317,514 Z" id="Shape" fill="#3F3D56" fill-rule="nonzero"></path>
                <polygon id="Rectangle-path" fill="#3F3D56" fill-rule="nonzero" points="723 514 774 514 774 547 723 547"></polygon>
                <polygon id="Rectangle-path" fill="#000000" fill-rule="nonzero" opacity="0.1" points="723 514 774 514 774 547 723 547"></polygon>
                <polygon id="Rectangle-path" fill="#3F3D56" fill-rule="nonzero" points="721 514 772 514 772 547 721 547"></polygon>
                <polygon id="Shape" fill="#000000" fill-rule="nonzero" opacity="0.1" points="246 283 246 289 225 288.486911 225 283"></polygon>
                <path d="M377.955657,111.337108 L353.732002,285.068335 C353.414012,287.365908 351.417613,289.058063 349.095236,288.998474 L155.136233,283.977218 L151.454407,283.881878 C150.157893,283.851196 148.935721,283.271102 148.093393,282.286598 C147.251064,281.302095 146.868184,280.006223 147.04046,278.722908 L174.235041,96.8559743 C174.598453,94.5206288 176.690437,92.8506562 179.052184,93.0105819 L373.711477,106.167544 C374.981198,106.241019 376.162221,106.841508 376.968483,107.823565 C377.774745,108.805621 378.132704,110.079667 377.955657,111.337108 Z" id="Shape" fill="#65617D" fill-rule="nonzero"></path>
                <polygon id="Shape" fill="#80BDEA" fill-rule="nonzero" points="186.49189 105 166 265.352228 344.098166 271 366 116.295544"></polygon>
                <path d="M414.33,103 L621.67,103 C624.613678,103 627,105.386322 627,108.33 L627,281.67 C627,284.613678 624.613678,287 621.67,287 L414.33,287 C411.386322,287 409,284.613678 409,281.67 L409,108.33 C409,105.386322 411.386322,103 414.33,103 Z" id="Rectangle-path" fill="#65617D" fill-rule="nonzero"></path>
                <polygon id="Rectangle-path" fill="#80BDEA" fill-rule="nonzero" points="419 116 616 116 616 270 419 270"></polygon>
                <polygon id="Shape" fill="#000000" fill-rule="nonzero" opacity="0.1" points="789 280 789 283.626794 768 284 768 280"></polygon>
                <path d="M878.993011,275.410593 C879.051272,276.299167 878.743367,277.172979 878.140464,277.830057 C877.537561,278.487135 876.691844,278.870609 875.798788,278.891842 L676.479255,282.999291 C674.761791,283.034662 673.307992,281.742904 673.146615,280.038107 L656.014931,102.494426 C655.929459,101.604284 656.213525,100.718096 656.800962,100.042285 C657.388399,99.3664732 658.227921,98.9600397 659.123975,98.9176554 L856.931576,89.1107232 L859.061058,89.0045876 C860.820608,88.9121778 862.337001,90.2265889 862.489524,91.9763852 L878.993011,275.410593 Z" id="Shape" fill="#65617D" fill-rule="nonzero"></path>
                <polygon id="Shape" fill="#80BDEA" fill-rule="nonzero" points="668 109.874615 847.813315 101 863 262.74359 684.606793 267"></polygon>
                <path d="M878.993033,275.516769 C879.051113,276.405849 878.744163,277.280158 878.143129,277.93761 C877.542096,278.595063 876.699,278.978755 875.808713,279 L857,89.1107863 L859.12288,89.0045902 C860.876974,88.9121277 862.388666,90.2272875 862.540716,91.9780805 L878.993033,275.516769 Z" id="Shape" fill="#000000" fill-rule="nonzero" opacity="0.1"></path>
                <path d="M179,93.0127988 L155.114927,285 L151.442743,284.904155 C150.149624,284.873312 148.930652,284.29015 148.090529,283.30044 C147.250407,282.31073 146.86853,281.008004 147.040354,279.717903 L174.163723,96.8891767 C174.522067,94.5241344 176.629171,92.8352467 179,93.0127988 Z" id="Shape" fill="#000000" fill-rule="nonzero" opacity="0.1"></path>
                <polygon id="Rectangle-path" fill="#000000" fill-rule="nonzero" opacity="0.1" points="225 325 246 325 246 344 225 344"></polygon>
                <polygon id="Shape" fill="#000000" fill-rule="nonzero" opacity="0.1" points="317 514 317 518.786517 266 520 266 514"></polygon>
                <path d="M405,332.20723 L405,511.360651 C404.97326,513.631981 403.173416,515.482858 400.908772,515.567881 L197.250627,521 L197.197494,521 C194.891254,520.971281 193.028652,519.104359 193,516.79277 L193,332.20723 C193.028652,329.895641 194.891254,328.028719 197.197494,328 L400.802506,328 C403.108746,328.028719 404.971348,329.895641 405,332.20723 Z" id="Shape" fill="#65617D" fill-rule="nonzero"></path>
                <path d="M197,328 L197,521 L196.95,521 C194.779742,520.971281 193.026963,519.104359 193,516.79277 L193,332.20723 C193.026963,329.895641 194.779742,328.028719 196.95,328 L197,328 Z" id="Shape" fill="#000000" fill-rule="nonzero" opacity="0.1"></path>
                <polygon id="Shape" fill="#D4DFEC" fill-rule="nonzero" points="206 339 395 339 395 496.743842 206 501"></polygon>
                <polygon id="Rectangle-path" fill="#000000" fill-rule="nonzero" opacity="0.1" points="768 325 789 325 789 344 768 344"></polygon>
                <polygon id="Shape" fill="#000000" fill-rule="nonzero" opacity="0.1" points="772 514 772 521 721 519.624025 721 514"></polygon>
                <path d="M837,332.20723 L837,516.79277 C836.970919,519.124948 835.076721,521.000182 832.750226,521 L629.090408,515.567881 C626.826218,515.482858 625.026734,513.631981 625,511.360651 L625,332.20723 C625.028646,329.895641 626.890875,328.028719 629.196652,328 L832.76085,328 C835.083206,328.005639 836.970977,329.879195 837,332.20723 Z" id="Shape" fill="#65617D" fill-rule="nonzero"></path>
                <path d="M837,332.20723 L837,516.79277 C836.972628,519.124948 835.189759,521.000182 833,521 L833,328 C835.189759,327.999818 836.972628,329.875052 837,332.20723 Z" id="Shape" fill="#000000" fill-rule="nonzero" opacity="0.1"></path>
                <polygon id="Shape" fill="#D4DFEC" fill-rule="nonzero" points="825 339 636 339 636 496.743842 825 501"></polygon>
                <path d="M621,332.20723 L621,511.360651 C620.97326,513.631981 619.173416,515.482858 616.908772,515.567881 L413.250627,521 C410.923664,521.000182 409.029087,519.124948 409,516.79277 L409,332.20723 C409.028652,329.895641 410.891254,328.028719 413.197494,328 L616.802506,328 C619.108746,328.028719 620.971348,329.895641 621,332.20723 Z" id="Shape" fill="#65617D" fill-rule="nonzero"></path>
                <polygon id="Shape" fill="#D4DFEC" fill-rule="nonzero" points="422 339 611 339 611 496.743842 422 501"></polygon>
                <polygon id="Shape" fill="#000000" fill-rule="nonzero" opacity="0.1" points="916 566 916 580.3 754.647715 581.84 752.927133 581.873 691.602219 582.456 690.136539 582.478 671.496909 582.643 670.944624 582.643 557.322536 583.732 370.809406 585.525 370.650092 585.525 323.2279 585.987 322.718098 585.998 112 588 112 571.5 327.083276 570.037 327.593078 570.037 371.128032 569.729 371.329828 569.729 671.985469 567.672 672.293474 567.672 672.474029 567.661 672.97321 567.661 678.060608 567.628 679.611255 567.628 758.726129 567.078 763.399313 567.056 764.440159 567.045"></polygon>
                <circle id="Oval" fill="#FBBEBE" fill-rule="nonzero" cx="517.5" cy="288.5" r="54.5"></circle>
                <path d="M323,586.628169 C323,586.511308 323.063772,586.383823 323.106286,586.256339 C324.169147,582.442419 326.061039,575.993813 327.474643,570.841302 C327.655329,570.203878 327.825387,569.577078 327.984816,568.982149 C329.547221,563.170967 332.587003,549.561965 334.276951,541.073603 C334.872153,538.088334 335.339812,535.761736 335.435469,534.593126 C335.648041,532.797715 338.847252,525.116756 342.471606,516.288434 C345.011843,510.084174 347.78591,503.306232 349.815973,497.590664 C351.144856,494.195682 352.186567,490.695292 352.930155,487.126287 C353.089496,486.380409 353.089496,485.60931 352.930155,484.863432 C352.611071,483.649023 352.439775,482.400562 352.419982,481.145125 C352.175524,474.558411 354.141816,464.147153 357.181597,459.780799 C360.901609,454.468932 363.558761,434.645047 363.558761,434.645047 C363.558761,434.645047 369.064379,435.441827 369.935925,430.894869 C370.028022,430.404773 370.063683,429.90575 370.042211,429.407546 C370.039963,429.012626 370.007987,428.618435 369.946553,428.228312 C369.000607,421.599103 385.591862,414.544944 394.923778,413.02575 C395.977466,412.845255 397.043453,412.745808 398.11236,412.728286 C400.379197,412.481596 402.608942,411.968099 404.755238,411.198468 C405.747242,410.893921 406.810102,410.539797 407.94382,410.136095 C411.855147,408.818752 416.531734,407.07646 421.495293,405.164188 C440.159125,397.929426 462.755542,388.166215 462.755542,388.166215 C462.914971,387.41193 463.095657,386.689516 463.297601,385.977726 C465.561489,376.893597 472.013117,369.42734 480.675372,365.867 C480.675372,365.165833 480.675372,364.454043 480.675372,363.742253 C480.675372,360.077065 480.515943,356.30564 480.356514,352.544839 C480.356514,351.811801 480.292742,351.078764 480.250228,350.345726 C480.250228,350.133251 480.250228,349.910153 480.250228,349.697678 C480.250228,349.485204 480.250228,349.325848 480.250228,349.145244 C480.250228,348.401583 480.175828,347.657922 480.133313,346.924884 L479.941998,346.776152 C478.309109,345.543397 476.905994,344.033043 475.796842,342.314184 C475.179394,341.309779 474.673318,340.241095 474.28758,339.127064 C472.959004,335.525619 472.650774,331.509848 471.757971,327.706551 L471.566657,326.920395 C470.40377,323.082537 468.983403,319.32739 467.315214,315.680486 C464.966292,309.922422 463.159429,303.994379 461.363195,297.99197 C460.271991,294.358654 459.170159,290.718255 458.057698,287.070773 L456.378378,281.503937 C456.05952,280.441564 455.740662,279.37919 455.496204,278.316817 C455.377525,277.826344 455.285278,277.329855 455.21986,276.829494 C454.92159,275.199438 455.008946,273.52224 455.474947,271.931954 C455.887986,270.846387 456.356256,269.782626 456.877923,268.744834 C457.100371,268.273757 457.278288,267.782931 457.409353,267.278759 C457.443912,267.167083 457.472298,267.053592 457.494382,266.938799 C457.570108,266.560982 457.60926,266.176755 457.611297,265.791436 C457.574507,264.398175 457.389231,263.012804 457.058609,261.658804 C457.052067,261.641701 457.052067,261.622788 457.058609,261.605685 C457.046041,261.50919 457.028302,261.413439 457.005466,261.318844 C456.81496,260.264972 456.687193,259.200728 456.622836,258.131725 C456.248927,252.379278 457.528612,246.639923 460.310963,241.590572 L460.512906,241.208118 C461.098912,240.181617 461.752227,239.194996 462.46857,238.25472 C462.798056,237.808524 463.138172,237.383574 463.53143,236.958625 C462.043425,238.382205 459.598846,237.755405 458.217127,236.225587 C457.988713,235.986299 457.792225,235.718484 457.632554,235.428807 C457.540572,235.275035 457.458907,235.115327 457.388096,234.950739 C457.334953,234.823255 457.292439,234.685146 457.249924,234.547038 C456.505922,231.944223 457.802612,229.171429 459.503189,227.057306 C461.178428,224.998041 463.253802,223.299472 465.604009,222.064151 C465.74122,221.98151 465.88318,221.907015 466.029153,221.841053 C466.931594,221.388521 467.870151,221.011849 468.835105,220.714937 C469.403393,220.526864 469.981789,220.370804 470.567568,220.247493 L466.624355,219.886286 L465.030064,219.737554 C466.653551,213.300207 472.222953,208.628336 478.847252,208.147061 L479.995141,208.147061 C480.553839,208.155669 481.111327,208.201809 481.663832,208.28517 C479.854074,207.492414 478.730042,205.656631 478.847252,203.685093 C481.630341,205.862784 485.081304,207.011327 488.614941,206.935956 L489.018828,206.935956 C488.834933,205.785442 488.714295,204.625714 488.657455,203.461995 C488.551169,201.884387 488.551169,200.301419 488.657455,198.72381 C490.585261,200.551334 493.224389,201.43064 495.86365,201.124774 L493.6529,198.043891 C495.623155,199.615097 498.110543,200.392049 500.625266,200.221757 L501.135439,200.168638 C501.563315,200.123894 501.986502,200.042139 502.400243,199.924292 L502.4959,199.924292 C502.293957,199.669322 502.113271,199.403729 501.932584,199.127512 L501.868813,199.000027 C501.426779,198.305159 501.069931,197.55969 500.805952,196.779667 C500.699892,196.477767 500.614664,196.168955 500.550865,195.855402 C500.087332,193.923915 500.25495,191.894804 501.029153,190.065468 C504.462193,192.933876 508.224719,196.854033 512.720619,193.890012 C517.21652,190.92599 517.36532,185.486639 524.412086,186.039073 C528.356351,186.411 531.783546,188.903844 533.350744,192.540798 C535.38862,190.238713 538.667713,189.490893 541.502885,190.681644 C544.289897,192.002154 545.942062,194.934679 545.626784,198.001396 C548.549651,197.268359 551.695718,196.545945 554.50167,197.650813 C557.307622,198.755681 559.114485,202.335879 557.520194,204.726219 C557.476744,204.801154 557.426963,204.872238 557.371394,204.938694 C556.064075,206.627867 553.173094,207.552132 553.481324,209.676879 L553.927725,209.995591 L555.309444,210.994222 C560.730033,214.903755 566.008908,219.011599 571.146067,223.317752 C573.781962,225.527488 576.587914,228.183422 576.7686,231.636135 C576.800285,232.483156 576.71444,233.330483 576.513514,234.153959 C576.343456,234.982611 576.109626,235.811262 575.92894,236.639913 C575.474325,238.750479 575.352397,240.919082 575.567568,243.067271 C575.641968,243.694072 575.737625,244.310248 575.85454,244.937048 C577.480717,253.149194 584.049195,259.927135 584.69754,268.309261 L584.69754,268.90419 C584.73665,269.800754 584.711787,270.698963 584.62314,271.591994 C584.134224,276.691386 581.774674,281.588927 579.861524,286.46522 C579.74461,286.762685 579.627695,287.060149 579.521409,287.357614 C575.833283,296.918973 573.707561,307.107133 572.081385,317.274046 C571.556777,320.881163 570.84727,324.458986 569.955664,327.993392 C568.985988,332.038364 567.139142,335.821031 564.545703,339.073945 C563.509393,340.297168 562.307401,341.369882 560.974491,342.261065 C560.077376,342.835134 559.135473,343.336068 558.157911,343.759012 C558.157911,343.759012 558.157911,343.759012 558.157911,343.822754 C558.274825,344.470802 558.370483,345.118849 558.487398,345.766897 C558.551169,346.106857 558.604312,346.446816 558.668084,346.82927 C558.663475,346.850268 558.663475,346.872015 558.668084,346.893013 C559.560887,351.918039 560.581233,356.836827 561.654722,361.511269 L562.196781,363.837867 C575.588825,368.671665 577.172487,378.572984 577.268145,382.365657 C577.305773,382.871357 577.305773,383.379151 577.268145,383.884851 C577.268145,383.884851 597.462496,384.416037 605.433951,390.259091 C606.923745,391.269933 608.534049,392.090776 610.227452,392.702549 C613.441984,393.916488 616.724731,394.941655 620.058913,395.772808 C621.770118,396.219005 623.555724,396.654578 625.373216,397.079527 C628.561798,397.812565 631.941695,398.524355 635.204677,399.204274 C643.909505,400.95719 652.10416,402.391394 656.259945,403.453767 C666.176435,405.960968 688.85788,427.697125 688.85788,427.697125 C688.85788,427.697125 691.515032,449.62451 694.172183,452.822254 C696.829335,456.019997 701.612208,467.259907 701.612208,467.259907 L719.191922,498.504305 L726.631947,511.645863 L731.414819,511.645863 C732.073793,511.645863 733.370483,512.580751 734.826602,513.876846 C736.091406,515.002962 737.494382,516.405295 738.7273,517.680143 L740.767993,519.858008 L742.043425,521.270965 C742.043425,521.270965 749.770422,521.462192 751.864258,527.570838 C758.156392,527.390235 765.883389,527.80456 771.29335,530.226771 C772.031578,530.551589 772.742448,530.935283 773.419071,531.374135 C775.662566,532.67293 777.255771,534.855352 777.808685,537.387167 C777.916806,537.890582 777.98082,538.402458 778,538.916985 C778,539.522538 778,540.12809 778,540.72302 C777.61737,548.765185 772.377467,555.458137 767.562709,559.9626 L767.902824,560.568153 C767.902824,560.568153 767.743395,560.950607 767.435166,561.630526 C767.350137,561.832377 767.243851,562.055475 767.126936,562.310445 C766.499848,563.649035 765.500759,565.656921 764.193441,568.004766 C761.419459,573.086694 758.000675,577.789383 754.021865,581.996222 L753.713635,582.314934 L692.344063,582.877992 L692.163377,582.665517 L680.259338,568.47221 L674.339204,561.418051 L674.158518,561.194953 L673.98846,562.884126 L673.414516,568.514705 L672.032797,582.123707 L671.958397,582.803626 L671.958397,582.984229 L671.798968,584.556541 L671.915882,582.984229 L671.607653,582.984229 L557.881567,584.046602 L371.221986,586.107606 L371.221986,587 L371.073186,587 L371.073186,586.107606 L323.510173,586.617546 L323,586.628169 Z" id="Shape" fill="url(#linearGradient-3)" fill-rule="nonzero"></path>
                <path d="M572,401.313526 C572,401.313526 466.615389,414.108093 476.677236,401.313526 C480.320684,396.686157 481.326868,382.974645 481.125631,367.354611 C481.062083,362.609959 480.89262,357.694712 480.649018,352.80079 C479.483962,329.344083 476.677236,306.420483 476.677236,306.420483 C476.677236,306.420483 568.822575,262.70571 558.231156,297.357664 C553.994589,311.357053 555.382065,331.018039 558.601856,349.474202 C559.544492,354.858583 560.635408,360.136342 561.779281,365.147548 C564.570906,377.370548 567.982276,389.441671 572,401.313526 Z" id="Shape" fill="#FBBEBE" fill-rule="nonzero"></path>
                <path d="M572,400.362896 C572,400.362896 466.615389,413.04638 476.677236,400.362896 C480.320684,395.775702 481.326868,382.183235 481.125631,366.698815 C497.192813,359.849733 517.63425,364.954835 517.63425,364.954835 C539.156012,360.67416 552.95663,361.509156 561.779281,364.510914 C564.570906,376.627793 567.982276,388.594113 572,400.362896 Z" id="Shape" fill="#000000" fill-rule="nonzero" opacity="0.1"></path>
                <path d="M371.718848,587 L371.718848,586.106724 L558.322811,584.075584 L672.015011,583.01216 L672.333774,583.01216 L672.216894,584.586028 L672.376275,583.01216 L672.578159,583.01216 L672.578159,582.831378 L674.033844,568.528326 L674.586367,563.115498 L674.756374,561.424654 L674.90513,560.0103 L681.471651,538.093133 L688.038173,516.207869 L693.563401,497.778732 L702,469.619266 C702,469.619266 697.218552,458.453315 694.562193,455.263043 C691.905833,452.072771 689.249473,430.27258 689.249473,430.27258 C689.249473,430.27258 666.574786,408.653172 656.661251,406.16476 C652.506704,405.101336 644.303865,403.686982 635.591005,401.911064 C632.328995,401.251741 628.981982,400.549881 625.762474,399.784216 C623.945524,399.369481 622.16045,398.933477 620.449754,398.497473 C617.120241,397.665144 613.839088,396.649807 610.621223,395.456081 C608.934088,394.842647 607.32833,394.024818 605.839775,393.02084 C598.030077,387.288985 578.458018,386.640296 577.703612,386.640296 C577.701542,386.615526 577.701542,386.590626 577.703612,386.565856 L577.703612,386.470148 C577.73104,386.023932 577.73104,385.57645 577.703612,385.130234 C577.703612,384.704865 577.703612,384.205055 577.607983,383.641441 C577.607983,383.471293 577.607983,383.290511 577.533605,383.109729 C577.480478,382.726896 577.416725,382.322795 577.321096,381.897425 C577.288834,381.70738 577.24627,381.51923 577.193591,381.333811 C576.885674,380.052442 576.440364,378.808108 575.865411,377.622461 C575.791033,377.452313 575.695404,377.271531 575.610401,377.101383 C575.089472,376.11904 574.485139,375.183327 573.804076,374.304579 C573.665945,374.123796 573.517189,373.93238 573.357807,373.751598 C572.487422,372.72444 571.519515,371.784222 570.467688,370.944159 C570.180801,370.72084 569.883289,370.486887 569.575151,370.274202 C569.403252,370.134637 569.222216,370.006741 569.033254,369.891369 L568.08759,369.274583 L567.205678,368.76414 C566.430021,368.33877 565.611862,367.924035 564.719325,367.530568 C564.443064,367.402957 564.145552,367.285981 563.848039,367.169004 C563.550527,367.052027 563.083008,366.871245 562.689866,366.722366 L562.626114,366.722366 L561.829206,366.403339 C561.223556,366.201288 560.60728,366.020506 559.959129,365.839724 L558.970963,365.584502 L557.908419,365.339915 L556.845875,365.116596 C555.783331,364.903911 554.646409,364.712495 553.45636,364.563615 L552.24506,364.414736 L551.001883,364.287125 L549.716205,364.180783 L547.88863,364.07444 L545.763542,364.000001 C536.391125,363.99913 527.045077,364.993683 517.882389,366.966953 C511.517067,365.549358 504.997248,364.94901 498.480337,365.180401 L497.555924,365.180401 L496.49338,365.244207 L495.813352,365.244207 L494.44267,365.371817 C493.985777,365.371817 493.518257,365.467526 493.061363,365.531331 C492.604469,365.595136 492.126325,365.648308 491.669431,365.722747 L490.968152,365.839724 C490.277498,365.956701 489.576219,366.084311 488.843064,366.233191 C488.609304,366.275728 488.375545,366.328899 488.141785,366.392704 C487.217372,366.594755 486.292959,366.839342 485.379171,367.115833 C484.922277,367.243444 484.465383,367.392323 484.008489,367.551837 C483.774729,367.615642 483.551595,367.700716 483.328461,367.78579 L482.648433,368.030377 L481.97903,368.296233 L481.182122,368.61526 C480.778356,368.785408 480.385214,368.96619 479.992073,369.157607 C479.768939,369.253315 479.545805,369.359657 479.333296,369.476634 C479.120787,369.59361 478.897653,369.689319 478.69577,369.806295 C476.293294,371.048714 474.073015,372.616006 472.097372,374.464092 L471.555474,374.98517 L471.024202,375.527516 C470.84357,375.708298 470.673563,375.899714 470.503556,376.091131 C469.811088,376.848735 469.165286,377.647778 468.569726,378.483835 C468.399719,378.707154 468.240337,378.930473 468.080956,379.164426 C467.406654,380.1597 466.796232,381.196856 466.25338,382.269624 C466.115249,382.524846 465.987744,382.790702 465.860239,383.045923 C464.99316,384.842456 464.282174,386.710339 463.735151,388.628899 C463.53681,389.337848 463.356177,390.046798 463.193254,390.755747 C463.193254,390.755747 440.699199,400.688126 422.040928,407.876872 C417.078848,409.791035 412.403654,411.524416 408.493493,412.832428 C407.356571,413.21526 406.294027,413.56619 405.305861,413.895852 C403.161749,414.671502 400.932033,415.185654 398.664961,415.427182 C397.596374,415.444722 396.530704,415.544267 395.47733,415.724941 C386.9026,417.118026 372.207618,423.168908 370.603176,429.241059 C370.472912,429.725949 370.436841,430.231355 370.496922,430.729853 C370.496922,430.729853 370.496922,430.804292 370.496922,430.846829 C371.559466,438.290797 364.121658,437.227373 364.121658,437.227373 C364.121658,437.227373 361.465299,456.900716 357.746395,462.217835 C355.058159,466.046161 353.219958,474.585456 352.986198,481.029805 C352.852602,483.03762 353.010074,485.054217 353.453717,487.016882 C353.453717,487.070053 353.453717,487.123224 353.453717,487.165761 C353.878735,488.590749 352.858693,492.482881 351.126746,497.470339 C349.246044,502.946972 346.50468,509.752885 343.869571,516.175966 C339.895657,525.874392 336.155502,534.679542 335.921743,536.614974 C335.826114,537.476347 335.549852,539.018312 335.167337,541.006915 C333.616022,549.110205 330.17338,564.540486 328.47331,570.782785 C327.208883,575.440582 325.370682,581.821125 324.106254,586.202432 C324.106254,586.330043 324.031876,586.457654 324,586.57463 L371.633844,586.106724 L371.633844,587 L371.7826,587 L371.718848,587 Z" id="Shape" fill="#80BDEA" fill-rule="nonzero"></path>
                <path d="M389,461 C389,461 450.045161,492.420569 472,488.692705 L389,461 Z" id="Shape" fill="#000000" fill-rule="nonzero" opacity="0.1"></path>
                <path d="M512,449 C512,449 571.532,468.139702 591.376,470.797994 C611.22,473.456285 512,449 512,449 Z" id="Shape" fill="#000000" fill-rule="nonzero" opacity="0.1"></path>
                <path d="M576,387.573803 C545.43097,393.369589 487.876866,392.121433 463,391.242297 C472.118004,357.596351 516.580131,369.035973 516.580131,369.035973 C571.614925,357.726593 575.831343,381.191927 576,387.573803 Z" id="Shape" fill="#000000" fill-rule="nonzero" opacity="0.1"></path>
                <path d="M576,385.573803 C545.43097,391.369589 487.876866,390.121433 463,389.242297 C472.118004,355.596351 516.580131,367.035973 516.580131,367.035973 C571.614925,355.726593 575.831343,379.191927 576,385.573803 Z" id="Shape" fill="#80BDEA" fill-rule="nonzero"></path>
                <path d="M741,529.936465 C741,529.936465 777.269345,524.413231 777.980717,540.193901 C778.692088,555.974572 759.48505,567 759.48505,567 L741,529.936465 Z" id="Shape" fill="#FBBEBE" fill-rule="nonzero"></path>
                <path d="M559.583457,349.229733 C558.016044,349.927257 556.413685,350.544164 554.782713,351.078018 C543.282265,355.029524 531.685803,359.012898 519.577261,360.457535 C507.468719,361.902171 494.762751,360.627492 484.201115,354.615254 C483.092154,353.991589 482.023256,353.2998 481.00062,352.543899 C479.827105,329.174776 477,306.336768 477,306.336768 C477,306.336768 569.814374,262.785219 559.146056,297.307789 C554.900065,311.254907 556.340288,330.842481 559.583457,349.229733 Z" id="Shape" fill="#000000" fill-rule="nonzero" opacity="0.1"></path>
                <path d="M502.498215,203.750096 C499.415954,204.559344 496.130278,203.872325 493.637131,201.897285 L495.852402,204.95707 C493.209839,205.260235 490.567396,204.388493 488.631471,202.574884 C488.430582,205.313967 488.544926,208.066895 488.972282,210.780191 C485.306773,210.955943 481.697849,209.830118 478.790557,207.603943 C478.674204,209.560217 479.796336,211.381372 481.602246,212.167152 C473.985378,211.262614 466.875388,216.115091 464.987715,223.506357 L470.547193,224.014557 C466.177993,224.942182 462.256589,227.32072 459.428237,230.75879 C457.724183,232.876288 456.424841,235.586686 457.170365,238.170034 C457.915889,240.753383 461.515704,242.405031 463.475367,240.562808 C457.832628,247.257877 455.45466,256.089695 456.978659,264.691703 C457.484164,266.502463 457.650233,268.390225 457.468575,270.260724 C457.117113,272.007661 456.009478,273.521672 455.45566,275.226259 C454.390626,278.317806 455.402409,281.674042 456.350289,284.755002 L461.345299,301.080915 C463.155856,306.978149 464.955764,312.88597 467.32014,318.592628 C468.994412,322.200601 470.417797,325.918476 471.580276,329.720083 C472.922219,334.844429 472.975471,340.4558 475.840412,344.93431 C477.803891,347.752631 480.428566,350.052931 483.487357,351.636193 C494.020544,357.628714 506.747701,358.899213 518.803886,357.459314 C530.860072,356.019415 542.426342,352.049105 553.896759,348.110558 C556.444932,347.347543 558.890959,346.281055 561.181592,344.93431 C569.116095,339.767613 570.884052,329.201296 572.364449,319.89489 C574.015252,309.519147 576.219873,299.164579 580.128548,289.402911 C582.450322,283.590378 585.453718,277.693144 584.942501,271.467699 C584.292831,263.198867 577.71092,256.496984 576.081418,248.36579 C575.53593,245.647803 575.561311,242.847083 576.15597,240.139308 C576.661323,238.526014 576.944359,236.852067 576.997347,235.163186 C576.816292,231.754014 574.004602,229.128316 571.363317,226.936705 C565.633434,222.179391 559.718945,217.683236 553.61985,213.448239 C553.31099,211.330741 556.207882,210.420216 557.517874,208.747392 C559.371034,206.386382 557.453972,202.638409 554.642282,201.53731 C551.830592,200.436211 548.678092,201.15616 545.749248,201.886697 C546.141103,198.826284 544.464591,195.873358 541.626528,194.625139 C538.788465,193.376921 535.462693,194.129775 533.448105,196.476488 C531.86383,192.865308 528.427086,190.398313 524.480518,190.039293 C517.419342,189.488743 517.280888,194.856602 512.765143,197.810513 C508.249399,200.764423 504.521779,196.868226 501.049768,194.030778 C499.75138,197.295153 500.303528,201.000159 502.498215,203.750096 Z" id="Shape" fill="#3F3D56" fill-rule="nonzero"></path>
                <path d="M767,561.627985 C767,561.627985 766.058153,563.87974 764.322614,567.140537 C761.697332,572.157251 758.501213,576.851445 754.798315,581.129038 L754.512586,581.437061 L752.798212,581.437061 L691.694544,582 L690.234152,582 L690.054248,581.78757 L678.201788,567.671612 L673.73595,562.350246 L673.556046,562.127195 L673.175074,561.681092 L672.963423,561.426176 L672.688277,561.09691 L664,550.75158 L667.174766,537.474719 L672.582451,515.105864 L672.720025,514.564168 L673.77828,510.315572 L674.529641,507.129126 L677.048289,496.74131 L685.683654,461 L701.028357,468.966117 L717.209083,497.644136 L725.897359,513.045295 L730.659509,513.045295 C731.559026,513.045295 733.622624,514.787219 735.696805,516.79468 C736.437583,517.50632 737.178362,518.260446 737.813316,518.918978 C739.69701,520.873332 741.18915,522.551527 741.18915,522.551527 C741.18915,522.551527 748.903832,522.721471 750.978013,528.818206 C751.085107,529.113239 751.173472,529.414785 751.242577,529.721032 C751.931088,532.11745 752.826958,534.448886 753.919963,536.688729 C755.285113,539.673367 756.999486,543.061622 758.735025,546.449877 C761.962704,552.663448 765.243296,558.579617 766.449707,560.725158 L766.597863,560.990695 L767,561.627985 Z" id="Shape" fill="#80BDEA" fill-rule="nonzero"></path>
                <path d="M675.971026,514.379729 L675.864912,515.900851 L675.864912,516.007223 L675.684518,518.453783 L674.273205,538.143269 L672.564773,561.86426 L672.07665,568.544431 L671.015512,582.840849 L671.015512,583.021681 L557.473759,584.085403 L371.148559,586.106474 L371.148559,587 L371,587 L371,586.106474 L371,585.808632 L371.477512,570.53359 L372.390091,540.685564 L373.175333,515.379628 L373.249612,512.858608 C373.343437,509.783415 374.694975,506.882297 376.987008,504.836173 C379.279042,502.790049 382.309754,501.779083 385.367807,502.040559 C390.376378,502.466048 396.881153,502.987272 404.659293,503.540407 L407.842707,503.774426 C452.760673,506.901767 535.773489,510.943909 619.539713,505.901869 C621.301202,505.806134 623.073303,505.699762 624.845403,505.572115 C637.83373,504.753049 650.811447,503.699965 663.661826,502.38095 C666.950318,502.035561 670.222542,503.16791 672.598166,505.473359 C674.973789,507.778809 676.208831,511.020584 675.971026,514.326543 L675.971026,514.379729 Z" id="Shape" fill="#000000" fill-rule="nonzero" opacity="0.1"></path>
                <path d="M371,586.957849 L371,586.072681 L557.434652,584.059977 L671.023695,583.006205 L671.342169,583.006205 L671.342169,582.827064 L672.403748,568.664372 L672.860228,562.341742 L674.601219,538.515964 L675.970657,519.653451 L675.970657,519.189791 C676.033954,518.320632 675.994764,517.447108 675.853883,516.586975 C675.859822,516.552097 675.859822,516.516476 675.853883,516.481598 C675.562259,514.703175 674.832976,513.023682 673.730723,511.592097 C671.354308,508.567154 667.573629,506.973578 663.730641,507.377011 C650.874909,508.683688 637.891788,509.726922 624.898051,510.538326 C623.125212,510.664778 621.352374,510.770156 619.590151,510.864995 C535.789039,515.807184 452.741648,511.802852 407.804973,508.757452 L404.620234,508.525622 C396.838853,507.977661 390.331369,507.47185 385.320712,507.039804 C379.611529,506.561588 374.460887,510.441644 373.388555,516.028476 C373.281368,516.598978 373.217493,517.176664 373.19747,517.756662 L372.475596,541.108243 L371.488327,570.687614 L371.021232,585.819776 L371.021232,586.114832 L371.021232,587 L371,586.957849 Z" id="Shape" fill="#3F3D56" fill-rule="nonzero"></path>
                <path d="M675.982927,521.57222 L674.678402,537.91909 L672.737525,562.284776 L672.249654,568.384195 L671.189065,582.043908 L671.12543,582.726361 L671.12543,582.907637 L670.966341,584.485809 L671.083006,582.907637 L670.775435,582.907637 L557.29243,583.973969 L371,586 L371,585.701427 L371.519689,570.388899 L372.580277,540.467623 L373.259054,520.580531 C373.326869,518.281929 374.5486,516.174473 376.504456,514.982288 C377.705436,514.24225 379.109665,513.906099 380.513482,514.02259 C382.740718,514.203866 385.477038,514.417132 388.66941,514.651726 C393.855689,515.035605 400.25104,515.483464 407.696374,515.952651 C421.484029,516.827043 438.782233,517.765415 458.604638,518.533174 C513.755258,520.665838 588.208594,521.38028 658.928658,515.152902 C662.110425,514.875655 665.39825,514.566419 668.611834,514.257183 C669.88385,514.129642 671.165443,514.374019 672.302683,514.960962 C672.62481,515.122283 672.930324,515.315156 673.21479,515.536781 C674.138061,516.209395 674.869505,517.113943 675.335967,518.159958 C675.44417,518.368067 675.532933,518.585821 675.601115,518.81042 C675.919717,519.693887 676.049807,520.634883 675.982927,521.57222 Z" id="Shape" fill="#000000" fill-rule="nonzero" opacity="0.1"></path>
                <path d="M317,536 L316.999999,539.357895 C317.00119,541.850126 315.528103,544.120213 313.215815,545.189474 L269.859872,546 C267.505584,544.949424 265.99723,542.658227 266.000004,540.136842 L266.000004,536.978947 L317,536 Z" id="Shape" fill="#000000" fill-rule="nonzero" opacity="0.1"></path>
                <polygon id="Shape" fill="#3F3D56" fill-rule="nonzero" points="318 546.965874 262 548 262 539.034126 318 538"></polygon>
                <polygon id="Shape" fill="#000000" fill-rule="nonzero" opacity="0.1" points="318 546.965874 262 548 262 539.034126 318 538"></polygon>
                <polygon id="Shape" fill="#3F3D56" fill-rule="nonzero" points="320 546.965874 264 548 264 539.034126 320 538"></polygon>
                <g id="Group" opacity="0.1" transform="translate(456.000000, 195.000000)" fill="#000000" fill-rule="nonzero">
                    <path d="M47.5113741,4.95194805 C46.4711481,3.60007072 45.7799733,2.01268271 45.4989586,0.33012987 C45.242352,1.97494599 45.3959701,3.65769068 45.9461621,5.22883117 C46.4746656,5.18004731 46.9982034,5.08743443 47.5113741,4.95194805 Z" id="Shape"></path>
                    <path d="M33.9887935,12.0231169 C33.7879945,10.7175765 33.6564886,9.40231356 33.5948285,8.08285714 C33.5948285,9.39272727 33.5948285,10.7132468 33.5948285,12.0337662 L33.9887935,12.0231169 Z" id="Shape"></path>
                    <path d="M120.767559,47.56 C120.826494,46.6112311 120.954607,45.6680315 121.150876,44.7379221 C121.654525,43.1181037 121.940965,41.4385876 122.002692,39.7433766 C121.978811,39.362863 121.921807,38.9851561 121.832329,38.6145455 C121.651318,39.5942857 121.36383,40.574026 121.150876,41.5431169 C120.725592,43.5186511 120.596407,45.5464568 120.767559,47.56 Z" id="Shape"></path>
                    <path d="M98.6203404,14.6535065 L99.7809398,15.4948052 C100.759401,14.7869623 101.674952,13.995975 102.517399,13.1306494 C103.332763,12.0027591 103.486876,10.526288 102.922012,9.25428571 C102.815951,9.4973895 102.680035,9.7263373 102.517399,9.93584416 C101.207732,11.6184416 98.311557,12.5449351 98.6203404,14.6535065 Z" id="Shape"></path>
                    <path d="M11.1281788,24.8981818 C10.7398132,25.6748759 10.4295079,26.4882156 10.2018288,27.3262338 C11.8674666,26.3963531 13.6615132,25.7180984 15.5256795,25.3135065 L11.1281788,24.8981818 Z" id="Shape"></path>
                    <path d="M25.8113589,13.3116883 C25.111948,12.9263154 24.4427723,12.4884358 23.8095911,12.0018182 C23.782783,12.4231126 23.8150388,12.8460867 23.9054204,13.2584416 C24.5411671,13.2281274 25.1782955,13.245927 25.8113589,13.3116883 Z" id="Shape"></path>
                    <path d="M129.913934,76.0576623 C129.477379,81.2225974 127.070998,86.1958442 125.122469,91.0945455 C121.214763,100.913247 119.010688,111.328312 117.360295,121.775325 C115.880264,131.136104 114.165984,141.764156 106.180208,146.95039 C103.898422,148.31379 101.455413,149.38702 98.9078283,150.145195 C87.4296063,154.117403 75.855555,158.10026 63.770414,159.548571 C51.6852731,160.996883 39.0038608,159.72961 28.4626365,153.702078 C25.4063054,152.107087 22.7828251,149.793828 20.817587,146.961039 C17.9746507,142.456364 17.9214122,136.812208 16.5585065,131.657922 C15.3963638,127.830625 13.9733364,124.087483 12.299426,120.454805 C9.94628397,114.725455 8.13617475,108.740519 6.33671323,102.851429 C4.66857336,97.3776623 3.00398273,91.9003463 1.34294133,86.4194805 C0.795875218,84.7707432 0.389803296,83.0785148 0.129103378,81.361039 C-0.286156972,84.0872727 0.523068326,86.9412987 1.34294133,89.6142857 C3.00398273,95.1022511 4.66857336,100.579567 6.33671323,106.046234 C8.13617475,111.977922 9.94628397,117.92026 12.299426,123.64961 C13.9733364,127.282289 15.3963638,131.02543 16.5585065,134.852727 C17.9001168,140.007013 17.9533553,145.651169 20.817587,150.155844 C22.7828251,152.988633 25.4063054,155.301892 28.4626365,156.896883 C39.0038608,162.924416 51.7172162,164.191688 63.770414,162.743377 C75.8236119,161.295065 87.3870155,157.312208 98.9078283,153.34 C101.455413,152.581826 103.898422,151.508595 106.180208,150.145195 C114.112746,144.958961 115.880264,134.330909 117.360295,124.97013 C119.010688,114.523117 121.214763,104.108052 125.122469,94.2893506 C127.443668,88.4535065 130.44632,82.5218182 129.93523,76.2493506 C129.93523,76.1854545 129.913934,76.1215584 129.913934,76.0576623 Z" id="Shape"></path>
                    <path d="M2.47159766,71.9363636 C2.47159766,71.9363636 2.47159766,71.8618182 2.47159766,71.8192208 C2.6636837,69.9413775 2.49747464,68.0441324 1.9818034,66.2283117 C1.76937765,65.0596609 1.63068353,63.8787998 1.56654305,62.6927273 C1.44395955,64.9447039 1.58331336,67.2033001 1.9818034,69.4231169 C2.15216662,70.2537662 2.34382525,71.0950649 2.47159766,71.9363636 Z" id="Shape"></path>
                    <path d="M5.71914656,45.8880519 C6.53805826,44.5121045 7.46747021,43.2050278 8.4981966,41.9797403 C6.54966726,43.8433766 2.95074422,42.1820779 2.19475743,39.5942857 C1.91611246,40.640988 1.91611246,41.7423887 2.19475743,42.7890909 C2.72842775,44.3797713 4.07345658,45.5624421 5.71914656,45.8880519 Z" id="Shape"></path>
                </g>
                <path d="M726.5,514 C726.5,514 729.875,526.254396 726.5,536.910393 C723.125,547.56639 726.5,514 726.5,514 Z" id="Shape" fill="#000000" fill-rule="nonzero" opacity="0.1"></path>
                <path d="M740.70319,526 C740.70319,526 742.047031,541.920722 739.015811,544.745015 C735.98459,547.569307 740.70319,526 740.70319,526 Z" id="Shape" fill="#000000" fill-rule="nonzero" opacity="0.1"></path>
                <path d="M212,364 L320,363" id="Shape" stroke="#80BDEA" stroke-width="2"></path>
                <path d="M212,377.99 L320,377" id="Shape" stroke="#80BDEA" stroke-width="2"></path>
                <path d="M212,391 L320,390" id="Shape" stroke="#80BDEA" stroke-width="2"></path>
            </g>
        </g>
    </g>
</svg>