<?xml version="1.0" encoding="UTF-8"?>
<svg width="146px" height="96px" viewBox="0 0 146 96" version="1.1" xmlns="http://www.w3.org/2000/svg" xmlns:xlink="http://www.w3.org/1999/xlink">
    <!-- Generator: Sketch 52.1 (67048) - http://www.bohemiancoding.com/sketch -->
    <title>undraw_organizing_projects1_47ja</title>
    <desc>Created with Sketch.</desc>
    <defs>
        <linearGradient x1="50.01507%" y1="100%" x2="50.01507%" y2="0.00796355692%" id="linearGradient-1">
            <stop stop-color="#808080" stop-opacity="0.25" offset="0%"></stop>
            <stop stop-color="#808080" stop-opacity="0.12" offset="54%"></stop>
            <stop stop-color="#808080" stop-opacity="0.1" offset="100%"></stop>
        </linearGradient>
        <linearGradient x1="21111%" y1="63930%" x2="29183%" y2="63930%" id="linearGradient-2">
            <stop stop-color="#808080" stop-opacity="0.25" offset="0%"></stop>
            <stop stop-color="#808080" stop-opacity="0.12" offset="54%"></stop>
            <stop stop-color="#808080" stop-opacity="0.1" offset="100%"></stop>
        </linearGradient>
        <linearGradient x1="74356%" y1="70881%" x2="74356%" y2="64780%" id="linearGradient-3">
            <stop stop-color="#808080" stop-opacity="0.25" offset="0%"></stop>
            <stop stop-color="#808080" stop-opacity="0.12" offset="54%"></stop>
            <stop stop-color="#808080" stop-opacity="0.1" offset="100%"></stop>
        </linearGradient>
        <linearGradient x1="32280%" y1="54316%" x2="32280%" y2="38506%" id="linearGradient-4">
            <stop stop-color="#808080" stop-opacity="0.25" offset="0%"></stop>
            <stop stop-color="#808080" stop-opacity="0.12" offset="54%"></stop>
            <stop stop-color="#808080" stop-opacity="0.1" offset="100%"></stop>
        </linearGradient>
        <linearGradient x1="51912%" y1="12368%" x2="51912%" y2="2932%" id="linearGradient-5">
            <stop stop-color="#808080" stop-opacity="0.25" offset="0%"></stop>
            <stop stop-color="#808080" stop-opacity="0.12" offset="54%"></stop>
            <stop stop-color="#808080" stop-opacity="0.1" offset="100%"></stop>
        </linearGradient>
        <linearGradient x1="53456%" y1="14548%" x2="53456%" y2="5112%" id="linearGradient-6">
            <stop stop-color="#808080" stop-opacity="0.25" offset="0%"></stop>
            <stop stop-color="#808080" stop-opacity="0.12" offset="54%"></stop>
            <stop stop-color="#808080" stop-opacity="0.1" offset="100%"></stop>
        </linearGradient>
        <linearGradient x1="65613%" y1="11952%" x2="65613%" y2="6540%" id="linearGradient-7">
            <stop stop-color="#808080" stop-opacity="0.25" offset="0%"></stop>
            <stop stop-color="#808080" stop-opacity="0.12" offset="54%"></stop>
            <stop stop-color="#808080" stop-opacity="0.1" offset="100%"></stop>
        </linearGradient>
        <linearGradient x1="82471%" y1="25181%" x2="82471%" y2="23613%" id="linearGradient-8">
            <stop stop-color="#808080" stop-opacity="0.25" offset="0%"></stop>
            <stop stop-color="#808080" stop-opacity="0.12" offset="54%"></stop>
            <stop stop-color="#808080" stop-opacity="0.1" offset="100%"></stop>
        </linearGradient>
        <linearGradient x1="77151%" y1="16236%" x2="77151%" y2="1804%" id="linearGradient-9">
            <stop stop-color="#808080" stop-opacity="0.25" offset="0%"></stop>
            <stop stop-color="#808080" stop-opacity="0.12" offset="54%"></stop>
            <stop stop-color="#808080" stop-opacity="0.1" offset="100%"></stop>
        </linearGradient>
        <linearGradient x1="94067%" y1="22257%" x2="94067%" y2="20195%" id="linearGradient-10">
            <stop stop-color="#808080" stop-opacity="0.25" offset="0%"></stop>
            <stop stop-color="#808080" stop-opacity="0.12" offset="54%"></stop>
            <stop stop-color="#808080" stop-opacity="0.1" offset="100%"></stop>
        </linearGradient>
        <linearGradient x1="67492%" y1="26290%" x2="67492%" y2="20296%" id="linearGradient-11">
            <stop stop-color="#808080" stop-opacity="0.25" offset="0%"></stop>
            <stop stop-color="#808080" stop-opacity="0.12" offset="54%"></stop>
            <stop stop-color="#808080" stop-opacity="0.1" offset="100%"></stop>
        </linearGradient>
        <linearGradient x1="63796%" y1="25527%" x2="63796%" y2="18097%" id="linearGradient-12">
            <stop stop-color="#808080" stop-opacity="0.25" offset="0%"></stop>
            <stop stop-color="#808080" stop-opacity="0.12" offset="54%"></stop>
            <stop stop-color="#808080" stop-opacity="0.1" offset="100%"></stop>
        </linearGradient>
    </defs>
    <g id="Symbols" stroke="none" stroke-width="1" fill="none" fill-rule="evenodd">
        <g id="Project-Card-Inverted" transform="translate(-201.000000, -14.000000)">
            <g id="Group-2">
                <g id="undraw_organizing_projects1_47ja" transform="translate(201.000000, 14.000000)">
                    <path d="M71.4156728,66.8735092 C70.290592,62.771267 64.0455544,59.7473188 59.1724435,58.9660197 L59.1724435,56.9950535 L59.4411195,56.8904303 C59.4157027,56.4968382 59.3371802,56.1085424 59.2077072,55.7362001 C61.2902534,54.8839288 63.0878642,53.4527099 64.3897955,51.6103333 C67.1644825,48.6895339 68.4795295,44.6665143 67.9688486,40.6612186 C67.4581676,36.655923 65.1762885,33.0960319 61.7584499,30.972562 C62.7112528,30.3708674 63.1740522,29.2240181 62.9074012,28.1253804 C62.6407502,27.0267427 61.7044746,26.2228069 60.5829925,26.1295199 C61.5003371,23.9546204 60.8206287,21.4313674 58.9368106,20.0184681 C57.0529924,18.6055689 54.4524529,18.6685739 52.6385791,20.1710596 C54.2200263,19.3254932 56.1269306,19.3754308 57.6624059,20.3026224 C59.1978812,21.229814 60.1369093,22.8983832 60.1363186,24.6985445 C60.1363186,24.7441062 60.1363186,24.7879804 60.1363186,24.8318547 C60.0776717,22.8016155 58.8321854,20.99747 56.9603356,20.2312938 C55.0884858,19.4651175 52.9430443,19.8813053 51.4894716,21.2925702 C50.035899,22.7038352 49.5481379,24.8442082 50.2456835,26.7505093 C49.4524436,26.921582 48.7874961,27.4616605 48.4546769,28.2051867 C48.1218577,28.948713 48.1608651,29.807 48.5597417,30.5169448 C44.8162911,32.4931297 42.2283002,36.1373841 41.5857166,40.3373506 C40.9431331,44.5373172 42.3222255,48.7945003 45.3020452,51.8094549 C46.5414495,53.4874842 48.1991181,54.8075591 50.1079871,55.6366393 L50.1079871,58.9221455 C45.1828202,59.6291959 38.6976534,62.7088306 37.5658558,66.9123211 C36.5784715,70.5758208 35.5239182,74.5987518 35,76.9612113 C39.4952853,80.1353445 48.9274919,82 54.8400431,82 C60.4570506,82 69.6373735,80.3125289 74,77.4269534 C73.5331755,74.8316228 72.4467169,70.6315073 71.4156728,66.8735092 Z M62.4116685,28.9762837 C62.4116685,29.0235329 62.4116685,29.0690946 62.4116685,29.1146563 C62.3433247,27.9218622 61.4645027,26.9344554 60.2924865,26.7336346 C60.3417438,26.649261 60.3887621,26.5637625 60.4335414,26.477139 C61.5914665,26.7458414 62.4116487,27.7820508 62.4116685,28.9762837 Z" id="Shape" fill="url(#linearGradient-1)" fill-rule="nonzero"></path>
                    <path d="M54.33094,80 C59.8045029,80 68.7491468,78.4061308 73,75.6690841 C72.5402207,73.2116636 71.4842441,69.2343925 70.4737402,65.6749159 C69.1954527,61.1416822 61.1248947,58 56.3098435,58 L51.6733147,58 C46.8447901,58 38.7624429,61.1614206 37.499313,65.7127477 C36.5376501,69.181757 35.505252,72.9928972 35,75.2299065 C39.3788503,78.228486 48.5710677,80 54.33094,80 Z" id="Shape" fill="#228CDB" fill-rule="nonzero"></path>
                    <circle id="Oval" fill="#F55F44" fill-rule="nonzero" cx="55" cy="42" r="13"></circle>
                    <path d="M50.0440756,51 L56.9696623,51 C57.5387021,51 58,51.4102917 58,51.9164121 L58,58.215218 C58,60.3054954 56.0948396,62 53.7447052,62 L53.2552948,62 C50.9051604,62 49,60.3054954 49,58.215218 L49,51.9225215 C49,51.4164011 49.4612979,51.0061094 50.0303377,51.0061094 L50.0440756,51 Z" id="Shape" fill="#FDA57D" fill-rule="nonzero"></path>
                    <path d="M55.6268456,55.999998 C57.124957,56.0007974 58.6094002,55.7671601 60,55.3117049 C59.8519812,53.4520096 57.9658237,52.0042337 55.6855225,52 L55.3144775,52 C53.0725574,52.0013224 51.2017009,53.3994347 51,55.2242579 C52.4620145,55.7364392 54.0361738,56.0003638 55.6268456,55.999998 Z" id="Shape" fill="#000000" fill-rule="nonzero" opacity="0.05"></path>
                    <circle id="Oval" fill="#FDA57D" fill-rule="nonzero" cx="55.5" cy="44.5" r="11.5"></circle>
                    <circle id="Oval" fill="#F55F44" fill-rule="nonzero" cx="50" cy="30" r="2"></circle>
                    <circle id="Oval" fill="#F55F44" fill-rule="nonzero" cx="59" cy="30" r="2"></circle>
                    <circle id="Oval" fill="#F55F44" fill-rule="nonzero" cx="54" cy="25" r="5"></circle>
                    <path d="M59.4332303,26.0000206 C58.922595,25.9992519 58.4233857,26.121312 58,26.3504551 C59.2172056,26.0070172 60.5628736,26.4420566 61.1437505,27.3667945 C61.7246275,28.2915325 61.3602419,29.418664 60.2924727,30 C61.4714438,29.6640584 62.1766372,28.6945319 61.9615541,27.7052839 C61.7464711,26.7160358 60.6738351,25.9955555 59.4227941,26.0000206 L59.4332303,26.0000206 Z" id="Shape" fill="#F55F44" fill-rule="nonzero"></path>
                    <path d="M55.5065305,20.0000213 C54.2268858,19.9966956 52.9862826,20.3827602 52,21.0912222 C54.494107,19.9380802 57.5880031,20.6143993 59.1572449,22.6557808 C60.7264867,24.6971623 60.2606484,27.4396079 58.0796009,29 C60.3103257,27.9703266 61.4471721,25.7527595 60.8361004,23.6230888 C60.2250286,21.4934181 58.0231441,19.9991782 55.4972145,20.0000213 L55.5065305,20.0000213 Z" id="Shape" fill="#F55F44" fill-rule="nonzero"></path>
                    <path d="M47,33.3369874 C47,33.3369874 48.3968083,42.510737 66,37.5061033 L57.338085,30 L47,33.3369874 Z" id="Shape" fill="#F55F44" fill-rule="nonzero"></path>
                    <g id="Group" opacity="0.7" transform="translate(8.000000, 67.000000)" fill="url(#linearGradient-2)" fill-rule="nonzero">
                        <path d="M13.79,9.15068493 C14.0576524,8.07341939 13.6361713,6.94208644 12.7297561,6.30479452 C12.4849819,6.16407766 12.2478946,6.01031881 12.0195122,5.84417808 C11.677374,5.5174462 11.431127,5.10286858 11.307561,4.64554795 C10.9507317,3.57363014 10.8397561,2.36986301 10.214878,1.40068493 C9.64634146,0.518835616 8.54,0.260273973 7.55829268,0.172945205 C7.20222655,0.114527775 6.83717052,0.148723269 6.49804878,0.272260274 C5.95170732,0.520547945 5.6904878,1.16780822 5.66487805,1.77054795 C5.63926829,2.37328767 5.79634146,2.96917808 5.83560976,3.56678082 C5.87487805,4.16438356 5.76731707,4.82876712 5.32341463,5.23630137 C4.8795122,5.64383562 4.24780488,5.69178082 3.66219512,5.7739726 C2.89505513,5.88125693 2.14136103,6.06951611 1.41365854,6.33561644 C0.802439024,6.55821918 0.121219512,6.96232877 0.092195122,7.61472603 C0.0682926829,8.14726027 0.496829268,8.57363014 0.819512195,8.99657534 C1.44397787,9.7924296 1.69822272,10.8186288 1.51780488,11.8150685 C1.3095122,12.8082192 0.614634146,13.6592466 0.493414634,14.6660959 C0.446019901,14.9177934 0.477635109,15.1780384 0.583902439,15.4109589 C0.681936592,15.5703474 0.811515588,15.7078829 0.964634146,15.8150685 C1.34195122,16.1078767 1.76365854,16.3424658 2.12219512,16.6609589 C2.86829268,17.3236301 3.27121951,18.2842466 3.58195122,19.2294521 C3.61268293,19.3202055 3.63829268,19.4126712 3.66731707,19.505137 L2.93487805,19.505137 C1.43907041,19.5089016 0.227412149,20.7241166 0.223658537,22.2243151 C0.227412149,23.7245135 1.43907041,24.9397285 2.93487805,24.9434932 L10.252439,24.9434932 C11.7482467,24.9397285 12.9599049,23.7245135 12.9636585,22.2243151 C12.9515231,20.7321328 11.7454112,19.5270596 10.257561,19.5205479 L8.25146341,19.5205479 C8.72609756,18.8835616 9.22121951,18.2842466 9.95878049,18.0393836 C10.6963415,17.7945205 11.5773171,17.9383562 12.1509756,17.4263699 C12.420314,17.1607175 12.5949183,16.8134927 12.6478049,16.4383562 C12.7692523,15.7689134 12.6558358,15.0779465 12.3268293,14.4828767 C12.0963415,14.0702055 11.7582927,13.6952055 11.684878,13.2277397 C11.6478773,12.8213636 11.7450577,12.4140534 11.9614634,12.0684932 C12.5112195,11.0479452 13.4912195,10.265411 13.79,9.15068493 Z" id="Shape"></path>
                    </g>
                    <path d="M15.0412741,68.0253302 C14.7053146,67.9720777 14.3608589,68.0031047 14.0408211,68.1154464 C13.5245128,68.3415562 13.2790548,68.9346848 13.2553554,69.4802975 C13.231656,70.0259103 13.3789308,70.5698846 13.4246368,71.1187743 C13.4703427,71.667664 13.3603098,72.265708 12.9438776,72.6392807 C12.5274453,73.0128534 11.9281892,73.0538153 11.374639,73.1308237 C10.6492754,73.2281934 9.93658627,73.3995482 9.24846462,73.6420284 C8.67121505,73.8451995 8.02794573,74.2122183 8.0008607,74.8069854 C7.97885412,75.2985284 8.38343667,75.6802935 8.68814319,76.066974 C9.27678366,76.7910761 9.51708386,77.7244054 9.34834065,78.6311901 C9.15197422,79.5356292 8.50193365,80.3122672 8.37666541,81.2298142 C8.33304745,81.4626133 8.36621262,81.7027946 8.471463,81.9163359 C8.56395958,82.0615518 8.68607152,82.1869917 8.83033956,82.2849932 C9.18752332,82.5520649 9.58533461,82.7667053 9.9222046,83.0550772 C10.6264152,83.6580367 11.0072984,84.5297063 11.301848,85.3997374 C11.5905969,86.2499601 11.8168697,87.1188813 11.9789736,88 C12.585001,87.6231504 13.3687739,87.6280658 14.0103504,87.3200322 C15.388301,86.6646415 15.8521321,84.7722008 17.3062593,84.3003195 C17.9952346,84.0774867 18.8297919,84.2085648 19.3765708,83.741599 C19.6315991,83.4995058 19.7970109,83.1827566 19.8471731,82.8404368 C19.9614246,82.2292715 19.8531381,81.5986701 19.5407738,81.0561356 C19.3224008,80.679286 19.0041517,80.3384828 18.9347464,79.9092019 C18.8995429,79.5387897 18.9911443,79.1674494 19.1954397,78.8523844 C19.7185192,77.9315605 20.6427957,77.2139077 20.9254956,76.2029675 C21.1770674,75.2215114 20.7788025,74.1913913 19.9233497,73.6108974 C19.6900197,73.4829564 19.4639834,73.3429367 19.2462241,73.1914473 C18.9215575,72.8945658 18.6873361,72.5171051 18.5690985,72.1002218 C18.2305357,71.1171358 18.1272741,70.0275488 17.536482,69.1509637 C17.0134025,68.3399177 15.9689362,68.1121695 15.0412741,68.0253302 Z" id="Shape" fill="#4DB6AC" fill-rule="nonzero"></path>
                    <path d="M15.6827707,68 C15.6827707,68 17.3603346,85.0761712 13,88" id="Shape" stroke="#535461" opacity="0.6"></path>
                    <path d="M10,86 L17,86 C18.1045695,86 19,86.8954305 19,88 L19,88 C19,89.1045695 18.1045695,90 17,90 L10,90 C8.8954305,90 8,89.1045695 8,88 L8,88 C8,86.8954305 8.8954305,86 10,86 Z" id="Rectangle-path" fill="#228CDB" fill-rule="nonzero"></path>
                    <path d="M8,74.0105918 C8,74.0105918 11.6029823,73.8257933 16,75" id="Shape" stroke="#535461" opacity="0.6"></path>
                    <path d="M14,79 C15.3911652,77.3784065 17.5647424,76.291618 20,76" id="Shape" stroke="#535461" opacity="0.6"></path>
                    <path d="M8,81.3111496 C8,81.3111496 13.4813299,80.2686892 16,82" id="Shape" stroke="#535461" opacity="0.6"></path>
                    <path d="M14,83.5 C14,83.5 15.8791946,82.5109541 18,83.3149427" id="Shape" stroke="#535461" opacity="0.6"></path>
                    <g id="Group" opacity="0.7" transform="translate(91.000000, 81.000000)" fill="url(#linearGradient-3)" fill-rule="nonzero">
                        <path d="M8.66328571,1.88709677 L8.66328571,0.129032258 L0.103714286,0.129032258 L0.103714286,8.25645161 C0.103714286,9.20246194 0.850887079,9.96935484 1.77257143,9.96935484 L6.99442857,9.96935484 C7.91611292,9.96935484 8.66328571,9.20246194 8.66328571,8.25645161 L8.66328571,6.4516129 C9.89263212,6.4516129 10.8892143,5.42872798 10.8892143,4.16693548 C10.8892143,2.90514299 9.89263212,1.88225806 8.66328571,1.88225806 L8.66328571,1.88709677 Z M8.66328571,5.57741935 L8.66328571,2.76451613 C9.16362428,2.74711785 9.63338426,3.01116203 9.88857526,3.45323077 C10.1437663,3.89529951 10.1437663,4.44502307 9.88857526,4.88709181 C9.63338426,5.32916055 9.16362428,5.59320473 8.66328571,5.57580645 L8.66328571,5.57741935 Z" id="Shape"></path>
                    </g>
                    <path d="M99.0000292,83 C98.1911166,83 97.4618546,83.4872772 97.1522972,84.2346151 C96.8427397,84.9819529 97.0138487,85.842176 97.5858363,86.4141637 C98.157824,86.9861513 99.0180471,87.1572603 99.7653849,86.8477028 C100.512723,86.5381454 101,85.8088834 101,84.9999708 C101,83.8954174 100.104583,83 99.0000292,83 Z M99.0000292,86.2311979 C98.3166242,86.2311979 97.762615,85.6771887 97.762615,84.9937837 C97.762615,84.3103787 98.3166242,83.7563695 99.0000292,83.7563695 C99.6834342,83.7563695 100.237443,84.3103787 100.237443,84.9937837 C100.237443,85.6771887 99.6834342,86.2311979 99.0000292,86.2311979 Z" id="Shape" fill="#228CDB" fill-rule="nonzero"></path>
                    <path d="M99.0000292,83 C98.1911166,83 97.4618546,83.4872772 97.1522972,84.2346151 C96.8427397,84.9819529 97.0138487,85.842176 97.5858363,86.4141637 C98.157824,86.9861513 99.0180471,87.1572603 99.7653849,86.8477028 C100.512723,86.5381454 101,85.8088834 101,84.9999708 C101,83.8954174 100.104583,83 99.0000292,83 Z M99.0000292,86.2311979 C98.3166242,86.2311979 97.762615,85.6771887 97.762615,84.9937837 C97.762615,84.3103787 98.3166242,83.7563695 99.0000292,83.7563695 C99.6834342,83.7563695 100.237443,84.3103787 100.237443,84.9937837 C100.237443,85.6771887 99.6834342,86.2311979 99.0000292,86.2311979 Z" id="Shape" fill="#000000" fill-rule="nonzero" opacity="0.1"></path>
                    <path d="M91,81 L100,81 L100,88.426009 C100,89.2953002 99.2101525,90 98.2358263,90 L92.7641737,90 C91.7898475,90 91,89.2953002 91,88.426009 L91,81 Z" id="Shape" fill="#228CDB" fill-rule="nonzero"></path>
                    <polygon id="Rectangle-path" fill="#E0E0E0" fill-rule="nonzero" points="0 90 109 90 109 94 0 94"></polygon>
                    <g id="Group" opacity="0.7" transform="translate(30.000000, 64.000000)" fill="url(#linearGradient-4)" fill-rule="nonzero">
                        <path d="M13.0149658,0.00981132075 L33.9169182,0.00981132075 C41.0559802,0.00981132075 46.8433333,5.79716449 46.8433333,12.9362264 L46.8433333,12.9362264 C46.8433333,20.0752883 41.0559802,25.8626415 33.9169182,25.8626415 L13.0149658,25.8626415 C5.87590389,25.8626415 0.0885507246,20.0752883 0.0885507246,12.9362264 L0.0885507246,12.9362264 C0.0885507246,5.79716449 5.87590389,0.00981132075 13.0149658,0.00981132075 Z" id="Rectangle-path"></path>
                    </g>
                    <path d="M45,66 L64,66 C71.1797017,66 77,71.8202983 77,79 L77,79 C77,86.1797017 71.1797017,92 64,92 L45,92 C37.8202983,92 32,86.1797017 32,79 L32,79 C32,71.8202983 37.8202983,66 45,66 Z" id="Rectangle-path" fill="#535461" fill-rule="nonzero"></path>
                    <circle id="Oval" fill="#FFFFFF" fill-rule="nonzero" cx="53.5" cy="78.5" r="1.5"></circle>
                    <polygon id="Rectangle-path" fill="#E0E0E0" fill-rule="nonzero" points="4 95 102 95 102 96 4 96"></polygon>
                    <polygon id="Rectangle-path" fill="#000000" fill-rule="nonzero" opacity="0.1" points="4 95 102 95 102 95.5 4 95.5"></polygon>
                    <path d="M98.9795918,81 L98.9795918,88.432675 C98.9795918,89.2982847 98.0932984,90 97,90 L98.0204082,90 C99.1137065,90 100,89.2982847 100,88.432675 L100,81 L98.9795918,81 Z" id="Shape" fill="#000000" fill-rule="nonzero" opacity="0.1"></path>
                    <path d="M93.4521746,76.2160701 C93.2885103,76.2205182 93.1356485,76.2882192 93.0352233,76.4007338 C92.9120331,76.5952901 93.1356706,76.816227 93.3403558,76.9497784 C93.7194025,77.1970959 94.1155063,77.4444133 94.373258,77.7857113 C94.6310097,78.1270093 94.7106095,78.6101027 94.430115,78.9398592 C94.064335,79.3718403 93.1887372,79.4658209 93.1034517,79.996729 C93.0484899,80.338027 93.3877367,80.6298615 93.7326691,80.8013349 C94.5817336,81.2250721 95.6771785,81.3371893 96.2912341,82 C96.5451953,81.544936 97.1156606,81.2811307 97.6823353,81.1756086 C98.2490101,81.0700865 98.8384276,81.0717353 99.4145785,80.9958913 C99.607153,80.9928374 99.7862872,80.9093955 99.8959678,80.7716569 C100.057063,80.4880662 99.5984162,80.1467682 99.7576158,79.8631776 C99.8789107,79.6455382 100.231424,79.6636748 100.489176,79.5762894 C100.909918,79.434494 101.082384,78.964591 100.962984,78.5870197 C100.843584,78.2094485 100.506233,77.9126676 100.151824,77.6702965 C99.2042076,77.0107834 98.0481153,76.6332122 96.8863373,76.3512703 C96.3461958,76.2226652 95.7112927,76.0215138 95.1503036,76.0017284 C94.5893146,75.981943 93.9942113,76.1369285 93.4521746,76.2160701 Z" id="Shape" fill="#EEEEEE" fill-rule="nonzero"></path>
                    <polygon id="Rectangle-path" fill="#535461" fill-rule="nonzero" opacity="0.1" points="73 0 146 0 146 49 73 49"></polygon>
                    <g id="Group" opacity="0.5" transform="translate(78.000000, 4.000000)" fill="url(#linearGradient-5)" fill-rule="nonzero">
                        <path d="M4.66961538,0.0538947368 L13.3719231,0.0538947368 C15.8572045,0.0538947368 17.8719231,2.06861336 17.8719231,4.55389474 L17.8719231,11.4461053 C17.8719231,13.9313866 15.8572045,15.9461053 13.3719231,15.9461053 L4.66961538,15.9461053 C2.18433401,15.9461053 0.169615385,13.9313866 0.169615385,11.4461053 L0.169615385,4.55389474 C0.169615385,2.06861336 2.18433401,0.0538947368 4.66961538,0.0538947368 Z" id="Rectangle-path"></path>
                    </g>
                    <path d="M82.5,4 L91.5,4 C93.9852814,4 96,6.01471863 96,8.5 L96,15.5 C96,17.9852814 93.9852814,20 91.5,20 L82.5,20 C80.0147186,20 78,17.9852814 78,15.5 L78,8.5 C78,6.01471863 80.0147186,4 82.5,4 Z" id="Rectangle-path" fill="#F5F5F5" fill-rule="nonzero"></path>
                    <path d="M81.5,8 L81.5,8 C82.3284271,8 83,8.67157288 83,9.5 L83,9.5 C83,10.3284271 82.3284271,11 81.5,11 L81.5,11 C80.6715729,11 80,10.3284271 80,9.5 L80,9.5 C80,8.67157288 80.6715729,8 81.5,8 Z" id="Rectangle-path" fill="#228CDB" fill-rule="nonzero"></path>
                    <path d="M84.25,8 L94.75,8 C94.8880712,8 95,8.11192881 95,8.25 L95,8.25 C95,8.38807119 94.8880712,8.5 94.75,8.5 L84.25,8.5 C84.1119288,8.5 84,8.38807119 84,8.25 L84,8.25 C84,8.11192881 84.1119288,8 84.25,8 Z" id="Rectangle-path" fill="#E0E0E0" fill-rule="nonzero"></path>
                    <path d="M84.25,9 L94.75,9 C94.8880712,9 95,9.11192881 95,9.25 L95,9.25 C95,9.38807119 94.8880712,9.5 94.75,9.5 L84.25,9.5 C84.1119288,9.5 84,9.38807119 84,9.25 L84,9.25 C84,9.11192881 84.1119288,9 84.25,9 Z" id="Rectangle-path" fill="#E0E0E0" fill-rule="nonzero"></path>
                    <path d="M80.25,11 L94.75,11 C94.8880712,11 95,11.1119288 95,11.25 L95,11.25 C95,11.3880712 94.8880712,11.5 94.75,11.5 L80.25,11.5 C80.1119288,11.5 80,11.3880712 80,11.25 L80,11.25 C80,11.1119288 80.1119288,11 80.25,11 Z" id="Rectangle-path" fill="#E0E0E0" fill-rule="nonzero"></path>
                    <path d="M80.25,13 L94.75,13 C94.8880712,13 95,13.1119288 95,13.25 L95,13.25 C95,13.3880712 94.8880712,13.5 94.75,13.5 L80.25,13.5 C80.1119288,13.5 80,13.3880712 80,13.25 L80,13.25 C80,13.1119288 80.1119288,13 80.25,13 Z" id="Rectangle-path" fill="#E0E0E0" fill-rule="nonzero"></path>
                    <path d="M80.25,13 L94.75,13 C94.8880712,13 95,13.1119288 95,13.25 L95,13.25 C95,13.3880712 94.8880712,13.5 94.75,13.5 L80.25,13.5 C80.1119288,13.5 80,13.3880712 80,13.25 L80,13.25 C80,13.1119288 80.1119288,13 80.25,13 Z" id="Rectangle-path" fill="#E0E0E0" fill-rule="nonzero"></path>
                    <path d="M80.25,15 L88.75,15 C88.8880712,15 89,15.1119288 89,15.25 L89,15.25 C89,15.3880712 88.8880712,15.5 88.75,15.5 L80.25,15.5 C80.1119288,15.5 80,15.3880712 80,15.25 L80,15.25 C80,15.1119288 80.1119288,15 80.25,15 Z" id="Rectangle-path" fill="#E0E0E0" fill-rule="nonzero"></path>
                    <path d="M80.25,16 L94.75,16 C94.8880712,16 95,16.1119288 95,16.25 L95,16.25 C95,16.3880712 94.8880712,16.5 94.75,16.5 L80.25,16.5 C80.1119288,16.5 80,16.3880712 80,16.25 L80,16.25 C80,16.1119288 80.1119288,16 80.25,16 Z" id="Rectangle-path" fill="#E0E0E0" fill-rule="nonzero"></path>
                    <path d="M80.25,16 L94.75,16 C94.8880712,16 95,16.1119288 95,16.25 L95,16.25 C95,16.3880712 94.8880712,16.5 94.75,16.5 L80.25,16.5 C80.1119288,16.5 80,16.3880712 80,16.25 L80,16.25 C80,16.1119288 80.1119288,16 80.25,16 Z" id="Rectangle-path" fill="#E0E0E0" fill-rule="nonzero"></path>
                    <path d="M80.25,18 L94.75,18 C94.8880712,18 95,18.1119288 95,18.25 L95,18.25 C95,18.3880712 94.8880712,18.5 94.75,18.5 L80.25,18.5 C80.1119288,18.5 80,18.3880712 80,18.25 L80,18.25 C80,18.1119288 80.1119288,18 80.25,18 Z" id="Rectangle-path" fill="#E0E0E0" fill-rule="nonzero"></path>
                    <path d="M80.25,19 L88.75,19 C88.8880712,19 89,19.1119288 89,19.25 L89,19.25 C89,19.3880712 88.8880712,19.5 88.75,19.5 L80.25,19.5 C80.1119288,19.5 80,19.3880712 80,19.25 L80,19.25 C80,19.1119288 80.1119288,19 80.25,19 Z" id="Rectangle-path" fill="#E0E0E0" fill-rule="nonzero"></path>
                    <g id="Group" opacity="0.5" transform="translate(81.000000, 9.000000)" fill="url(#linearGradient-6)" fill-rule="nonzero">
                        <path d="M4.57339806,0.0202105263 L13.4475728,0.0202105263 C15.9328542,0.0202105263 17.9475728,2.03492915 17.9475728,4.52021053 L17.9475728,11.4124211 C17.9475728,13.8977024 15.9328542,15.9124211 13.4475728,15.9124211 L4.57339806,15.9124211 C2.08811668,15.9124211 0.0733980583,13.8977024 0.0733980583,11.4124211 L0.0733980583,4.52021053 C0.0733980583,2.03492915 2.08811668,0.0202105263 4.57339806,0.0202105263 Z" id="Rectangle-path"></path>
                    </g>
                    <path d="M85.5,9 L94.5,9 C96.9852814,9 99,11.0147186 99,13.5 L99,20.5 C99,22.9852814 96.9852814,25 94.5,25 L85.5,25 C83.0147186,25 81,22.9852814 81,20.5 L81,13.5 C81,11.0147186 83.0147186,9 85.5,9 Z" id="Rectangle-path" fill="#FFFFFF" fill-rule="nonzero"></path>
                    <path d="M84.5,11 L84.5,11 C85.3284271,11 86,11.6715729 86,12.5 L86,12.5 C86,13.3284271 85.3284271,14 84.5,14 L84.5,14 C83.6715729,14 83,13.3284271 83,12.5 L83,12.5 C83,11.6715729 83.6715729,11 84.5,11 Z" id="Rectangle-path" fill="#228CDB" fill-rule="nonzero"></path>
                    <path d="M87.25,11 L97.75,11 C97.8880712,11 98,11.1119288 98,11.25 L98,11.25 C98,11.3880712 97.8880712,11.5 97.75,11.5 L87.25,11.5 C87.1119288,11.5 87,11.3880712 87,11.25 L87,11.25 C87,11.1119288 87.1119288,11 87.25,11 Z" id="Rectangle-path" fill="#E0E0E0" fill-rule="nonzero"></path>
                    <path d="M87.25,11 L97.75,11 C97.8880712,11 98,11.1119288 98,11.25 L98,11.25 C98,11.3880712 97.8880712,11.5 97.75,11.5 L87.25,11.5 C87.1119288,11.5 87,11.3880712 87,11.25 L87,11.25 C87,11.1119288 87.1119288,11 87.25,11 Z" id="Rectangle-path" fill="#E0E0E0" fill-rule="nonzero"></path>
                    <path d="M83.25,15 L96.75,15 C96.8880712,15 97,15.1119288 97,15.25 L97,15.25 C97,15.3880712 96.8880712,15.5 96.75,15.5 L83.25,15.5 C83.1119288,15.5 83,15.3880712 83,15.25 L83,15.25 C83,15.1119288 83.1119288,15 83.25,15 Z" id="Rectangle-path" fill="#E0E0E0" fill-rule="nonzero"></path>
                    <path d="M83.25,16 L96.75,16 C96.8880712,16 97,16.1119288 97,16.25 L97,16.25 C97,16.3880712 96.8880712,16.5 96.75,16.5 L83.25,16.5 C83.1119288,16.5 83,16.3880712 83,16.25 L83,16.25 C83,16.1119288 83.1119288,16 83.25,16 Z" id="Rectangle-path" fill="#E0E0E0" fill-rule="nonzero"></path>
                    <path d="M83.25,18 L96.75,18 C96.8880712,18 97,18.1119288 97,18.25 L97,18.25 C97,18.3880712 96.8880712,18.5 96.75,18.5 L83.25,18.5 C83.1119288,18.5 83,18.3880712 83,18.25 L83,18.25 C83,18.1119288 83.1119288,18 83.25,18 Z" id="Rectangle-path" fill="#E0E0E0" fill-rule="nonzero"></path>
                    <path d="M83.25,18 L91.75,18 C91.8880712,18 92,18.1119288 92,18.25 L92,18.25 C92,18.3880712 91.8880712,18.5 91.75,18.5 L83.25,18.5 C83.1119288,18.5 83,18.3880712 83,18.25 L83,18.25 C83,18.1119288 83.1119288,18 83.25,18 Z" id="Rectangle-path" fill="#E0E0E0" fill-rule="nonzero"></path>
                    <path d="M83.25,19 L96.75,19 C96.8880712,19 97,19.1119288 97,19.25 L97,19.25 C97,19.3880712 96.8880712,19.5 96.75,19.5 L83.25,19.5 C83.1119288,19.5 83,19.3880712 83,19.25 L83,19.25 C83,19.1119288 83.1119288,19 83.25,19 Z" id="Rectangle-path" fill="#E0E0E0" fill-rule="nonzero"></path>
                    <path d="M83.25,20 L96.75,20 C96.8880712,20 97,20.1119288 97,20.25 L97,20.25 C97,20.3880712 96.8880712,20.5 96.75,20.5 L83.25,20.5 C83.1119288,20.5 83,20.3880712 83,20.25 L83,20.25 C83,20.1119288 83.1119288,20 83.25,20 Z" id="Rectangle-path" fill="#E0E0E0" fill-rule="nonzero"></path>
                    <path d="M83.25,22 L96.75,22 C96.8880712,22 97,22.1119288 97,22.25 L97,22.25 C97,22.3880712 96.8880712,22.5 96.75,22.5 L83.25,22.5 C83.1119288,22.5 83,22.3880712 83,22.25 L83,22.25 C83,22.1119288 83.1119288,22 83.25,22 Z" id="Rectangle-path" fill="#E0E0E0" fill-rule="nonzero"></path>
                    <path d="M83.25,22 L91.75,22 C91.8880712,22 92,22.1119288 92,22.25 L92,22.25 C92,22.3880712 91.8880712,22.5 91.75,22.5 L83.25,22.5 C83.1119288,22.5 83,22.3880712 83,22.25 L83,22.25 C83,22.1119288 83.1119288,22 83.25,22 Z" id="Rectangle-path" fill="#E0E0E0" fill-rule="nonzero"></path>
                    <polygon id="Rectangle-path" fill="url(#linearGradient-7)" fill-rule="nonzero" points="106 10 116 10 116 19 106 19"></polygon>
                    <polygon id="Rectangle-path" fill="#F5F5F5" fill-rule="nonzero" points="106 11 115 11 115 20 106 20"></polygon>
                    <g id="Group" opacity="0.5" transform="translate(109.000000, 11.000000)" fill="url(#linearGradient-8)" fill-rule="nonzero">
                        <path d="M2.825,0.52125 L2.825,0.024375 L1.21666667,0.024375 L1.21666667,0.52125 L0.09,0.52125 L0.09,2.95875 L3.95,2.95875 L3.95,0.52125 L2.825,0.52125 Z M1.41666667,0.204375 L2.62333333,0.204375 L2.62333333,0.52125 L1.41666667,0.52125 L1.41666667,0.204375 Z" id="Shape"></path>
                    </g>
                    <polygon id="Rectangle-path" fill="#228CDB" fill-rule="nonzero" opacity="0.6" points="109 13 112 13 112 14 109 14"></polygon>
                    <polygon id="Shape" fill="#228CDB" fill-rule="nonzero" opacity="0.6" points="109 13 109 13.5 109.125566 13.5 109.125566 13.1423948 109.874434 13.1423948 109.874434 13.5 110 13.5 110 13"></polygon>
                    <g id="Group" opacity="0.6" transform="translate(109.000000, 16.000000)" fill="#228CDB" fill-rule="nonzero">
                        <polygon id="Rectangle-path" points="0.105714286 0.16125 2.91428571 0.16125 2.91428571 1.155 0.105714286 1.155"></polygon>
                    </g>
                    <polygon id="Rectangle-path" fill="#BDBDBD" fill-rule="nonzero" points="107 18 113 18 113 18.5 107 18.5"></polygon>
                    <g id="Group" opacity="0.5" transform="translate(119.000000, 3.000000)" fill="url(#linearGradient-9)" fill-rule="nonzero">
                        <polygon id="Rectangle-path" points="0.0162601626 0.00689655172 19.9902439 0.00689655172 19.9902439 24.8896552 0.0162601626 24.8896552"></polygon>
                    </g>
                    <polygon id="Rectangle-path" fill="#FFFFFF" fill-rule="nonzero" points="120 3 140 3 140 26 120 26"></polygon>
                    <g id="Group" opacity="0.5" transform="translate(127.000000, 6.000000)" fill="url(#linearGradient-10)" fill-rule="nonzero">
                        <path d="M4.20375,0.807272727 L4.20375,0.172727273 L1.828125,0.172727273 L1.828125,0.807272727 L0.163125,0.807272727 L0.163125,3.92181818 L5.8725,3.92181818 L5.8725,0.807272727 L4.20375,0.807272727 Z M2.1225,0.403636364 L3.9075,0.403636364 L3.9075,0.807272727 L2.1225,0.807272727 L2.1225,0.403636364 Z" id="Shape"></path>
                    </g>
                    <polygon id="Rectangle-path" fill="#228CDB" fill-rule="nonzero" points="127 8 131 8 131 11 127 11"></polygon>
                    <polygon id="Shape" fill="#228CDB" fill-rule="nonzero" points="129 8 129 9 129.124892 9 129.124892 8.28571429 129.875108 8.28571429 129.875108 9 130 9 130 8"></polygon>
                    <polygon id="Rectangle-path" fill="#E0E0E0" fill-rule="nonzero" points="123 13 137 13 137 13.5 123 13.5"></polygon>
                    <polygon id="Rectangle-path" fill="#E0E0E0" fill-rule="nonzero" points="123 18 137 18 137 18.5 123 18.5"></polygon>
                    <polygon id="Rectangle-path" fill="#E0E0E0" fill-rule="nonzero" points="123 19 137 19 137 19.5 123 19.5"></polygon>
                    <polygon id="Rectangle-path" fill="#E0E0E0" fill-rule="nonzero" points="123 16 129 16 129 16.5 123 16.5"></polygon>
                    <polygon id="Rectangle-path" fill="#3AD29F" fill-rule="nonzero" opacity="0.6" points="132 16 136 16 136 16.5 132 16.5"></polygon>
                    <polygon id="Rectangle-path" fill="#228CDB" fill-rule="nonzero" points="127 20 131 20 131 20.5 127 20.5"></polygon>
                    <g id="Group" opacity="0.5" transform="translate(107.000000, 33.000000)" fill="url(#linearGradient-11)" fill-rule="nonzero">
                        <polygon id="Rectangle-path" points="0.0755405405 0.157377049 12.8981081 0.157377049 12.8981081 9.9852459 0.0755405405 9.9852459"></polygon>
                    </g>
                    <polygon id="Rectangle-path" fill="#F2F2F2" fill-rule="nonzero" points="107 33 118 33 118 43 107 43"></polygon>
                    <polygon id="Rectangle-path" fill="#228CDB" fill-rule="nonzero" points="107 33 118 33 118 34 107 34"></polygon>
                    <polygon id="Rectangle-path" fill="#000000" fill-rule="nonzero" opacity="0.1" points="107 33 118 33 118 34 107 34"></polygon>
                    <polygon id="Rectangle-path" fill="#E0E0E0" fill-rule="nonzero" points="109 37 119 37 119 38 109 38"></polygon>
                    <polygon id="Rectangle-path" fill="#E0E0E0" fill-rule="nonzero" points="109 39 116 39 116 39.5 109 39.5"></polygon>
                    <polygon id="Rectangle-path" fill="#E0E0E0" fill-rule="nonzero" points="109 39 113 39 113 39.5 109 39.5"></polygon>
                    <polygon id="Rectangle-path" fill="#E0E0E0" fill-rule="nonzero" points="109 40 115 40 115 40.5 109 40.5"></polygon>
                    <polygon id="Rectangle-path" fill="#E0E0E0" fill-rule="nonzero" points="109 42 116 42 116 42.5 109 42.5"></polygon>
                    <polygon id="Rectangle-path" fill="#E0E0E0" fill-rule="nonzero" points="109 42 112 42 112 42.5 109 42.5"></polygon>
                    <g id="Group" opacity="0.5" transform="translate(100.000000, 30.000000)" fill="url(#linearGradient-12)" fill-rule="nonzero">
                        <polygon id="Rectangle-path" points="0.126956522 0.165921053 15.8591304 0.165921053 15.8591304 12.8751316 0.126956522 12.8751316"></polygon>
                    </g>
                    <polygon id="Rectangle-path" fill="#FFFFFF" fill-rule="nonzero" points="100 30 115 30 115 41 100 41"></polygon>
                    <polygon id="Rectangle-path" fill="#228CDB" fill-rule="nonzero" points="100 30 115 30 115 33 100 33"></polygon>
                    <polygon id="Rectangle-path" fill="#F5F5F5" fill-rule="nonzero" points="101 33 114 33 114 34 101 34"></polygon>
                    <polygon id="Rectangle-path" fill="#E0E0E0" fill-rule="nonzero" points="101 37 110 37 110 37.5 101 37.5"></polygon>
                    <polygon id="Rectangle-path" fill="#E0E0E0" fill-rule="nonzero" points="101 38 107 38 107 38.5 101 38.5"></polygon>
                    <polygon id="Rectangle-path" fill="#E0E0E0" fill-rule="nonzero" points="101 39 109 39 109 39.5 101 39.5"></polygon>
                    <polygon id="Rectangle-path" fill="#E0E0E0" fill-rule="nonzero" points="101 39 110 39 110 39.5 101 39.5"></polygon>
                    <polygon id="Rectangle-path" fill="#E0E0E0" fill-rule="nonzero" points="101 40 104 40 104 40.5 101 40.5"></polygon>
                    <polygon id="Rectangle-path" fill="#69F0AE" fill-rule="nonzero" points="101 35 104 35 104 35.5 101 35.5"></polygon>
                    <circle id="Oval" fill="#535461" fill-rule="nonzero" opacity="0.1" cx="79" cy="61" r="2"></circle>
                    <circle id="Oval" fill="#535461" fill-rule="nonzero" opacity="0.1" cx="83" cy="54" r="2"></circle>
                </g>
            </g>
        </g>
    </g>
</svg>