<?xml version="1.0" encoding="UTF-8"?>
<svg width="20px" height="20px" viewBox="0 0 20 20" version="1.1" xmlns="http://www.w3.org/2000/svg" xmlns:xlink="http://www.w3.org/1999/xlink">
    <!-- Generator: Sketch 52.1 (67048) - http://www.bohemiancoding.com/sketch -->
    <title>progress-clock</title>
    <desc>Created with Sketch.</desc>
    <g id="Page-1" stroke="none" stroke-width="1" fill="none" fill-rule="evenodd">
        <g id="progress-clock" fill="#80BDEA" fill-rule="nonzero">
            <path d="M11,0.05 L11,2.05 C15.39,2.59 18.5,6.58 17.96,10.97 C17.5,14.61 14.64,17.5 11,17.93 L11,19.93 C16.5,19.38 20.5,14.5 19.95,9 C19.5,4.25 15.73,0.5 11,0.03 L11,0.05 Z M9,0.06 C7.05,0.25 5.19,1 3.67,2.26 L5.1,3.74 C6.22,2.84 7.57,2.26 9,2.06 L9,0.06 Z M0.05,9 L2.05,9 C2.24,7.58 2.8,6.23 3.69,5.1 L2.26,3.67 C1,5.19 0.25,7.04 0.05,9 Z M0.06,11 C0.26,12.96 1.03,14.81 2.27,16.33 L3.69,14.9 C2.81,13.77 2.24,12.42 2.06,11 L0.06,11 Z M5.1,16.37 L3.67,17.74 C5.18,19 7.04,19.79 9,20 L9,18 C7.58,17.82 6.23,17.25 5.1,16.37 Z M10.5,5 L10.5,10.25 L15,12.92 L14.25,14.15 L9,11 L9,5 L10.5,5 Z" id="Shape"></path>
        </g>
    </g>
</svg>