<?xml version="1.0" encoding="UTF-8"?>
<svg width="1614px" height="871px" viewBox="0 0 1614 871" version="1.1" xmlns="http://www.w3.org/2000/svg" xmlns:xlink="http://www.w3.org/1999/xlink">
    <!-- Generator: Sketch 52.1 (67048) - http://www.bohemiancoding.com/sketch -->
    <title>undraw_developer_activity_bv83</title>
    <desc>Created with Sketch.</desc>
    <g id="Page-1" stroke="none" stroke-width="1" fill="none" fill-rule="evenodd" opacity="0.398663949">
        <g transform="translate(-177.000000, -142.000000)" fill-rule="nonzero" id="undraw_developer_activity_bv83">
            <g transform="translate(177.000000, 142.000000)">
                <path d="M1613.999,558.121823 C1614.01838,581.746147 1610.76617,605.25969 1604.33476,627.994466 C1598.11871,649.911802 1588.97421,670.893198 1577.14792,690.372704 C1577.14792,760.949709 1529.43339,821.947399 1460.17536,850.967085 C1431.23487,862.9715 1400.19,869.101249 1368.85184,868.998735 L306.392288,868.998735 C249.60607,868.998735 196.981824,853.700007 153.824298,827.638638 C141.472924,820.214332 129.756138,811.785051 118.793198,802.43659 C70.8247161,761.273715 41.0842573,704.389495 41.0842573,641.560465 C14.1628509,600.16775 -0.112126967,551.846556 0.000663253299,502.491366 C0.000663253299,399.147473 61.2169113,310.285249 148.914583,271.052323 C160.559888,265.845117 172.592957,261.549662 184.905053,258.204773 C189.259839,257.021446 193.661652,255.960208 198.110494,255.02106 C209.970127,252.499276 221.999359,250.851327 234.100964,250.09053 C238.474561,249.818177 242.871672,249.663218 247.292296,249.625652 L249.718937,249.625652 C254.600436,249.625652 259.439609,249.794699 264.250566,250.076443 L265.830704,247.39987 C267.768254,244.1692 269.752833,240.971399 271.784439,237.806469 C275.452617,232.040098 279.299501,226.35825 283.325091,220.760925 C287.538793,214.853681 291.935904,209.040353 296.516424,203.320939 L297.687419,201.912216 C300.283361,198.681545 302.935736,195.488441 305.644544,192.332902 C314.10957,182.481235 323.044876,172.9254 332.45046,163.665396 C434.185967,64.0968801 593.568303,0 772.744692,0 C912.163674,0 1039.60464,38.8103087 1137.2205,102.935363 C1174.20115,82.0391867 1215.97638,71.0747033 1258.4679,71.1123189 C1396.36317,71.1123189 1508.18617,184.331357 1508.18617,323.99212 C1508.16564,332.828911 1507.69475,341.658933 1506.77533,350.447931 C1574.23083,398.127108 1614.23066,475.599934 1613.999,558.121823 Z" id="Shape" fill="#228CDB" opacity="0.307291667"></path>
                <path d="M333,162 L333,190 L305,190 C313.773333,180.386896 323.106667,171.053563 333,162 Z" id="Shape" fill="#228CDB" opacity="0.2"></path>
                <polygon id="Rectangle-path" fill="#228CDB" opacity="0.2" points="346 157 383 157 383 194 346 194"></polygon>
                <polygon id="Rectangle-path" fill="#228CDB" opacity="0.2" points="393 157 430 157 430 194 393 194"></polygon>
                <polygon id="Rectangle-path" fill="#228CDB" opacity="0.2" points="443 157 480 157 480 194 443 194"></polygon>
                <polygon id="Rectangle-path" fill="#228CDB" opacity="0.2" points="494 157 531 157 531 194 494 194"></polygon>
                <polygon id="Rectangle-path" fill="#228CDB" opacity="0.2" points="544 157 581 157 581 194 544 194"></polygon>
                <polygon id="Rectangle-path" fill="#228CDB" points="591 157 628 157 628 194 591 194"></polygon>
                <polygon id="Rectangle-path" fill="#228CDB" opacity="0.2" points="642 157 679 157 679 194 642 194"></polygon>
                <polygon id="Rectangle-path" fill="#228CDB" opacity="0.2" points="692 157 729 157 729 194 692 194"></polygon>
                <polygon id="Rectangle-path" fill="#228CDB" opacity="0.2" points="739 157 776 157 776 194 739 194"></polygon>
                <polygon id="Rectangle-path" fill="#228CDB" points="790 157 827 157 827 194 790 194"></polygon>
                <polygon id="Rectangle-path" fill="#228CDB" opacity="0.2" points="838 157 875 157 875 194 838 194"></polygon>
                <polygon id="Rectangle-path" fill="#228CDB" opacity="0.2" points="887 157 924 157 924 194 887 194"></polygon>
                <polygon id="Rectangle-path" fill="#228CDB" opacity="0.2" points="935 157 972 157 972 194 935 194"></polygon>
                <polygon id="Rectangle-path" fill="#228CDB" opacity="0.2" points="985 157 1022 157 1022 194 985 194"></polygon>
                <polygon id="Rectangle-path" fill="#228CDB" opacity="0.2" points="1032 157 1069 157 1069 194 1032 194"></polygon>
                <polygon id="Rectangle-path" fill="#228CDB" opacity="0.2" points="1085 157 1122 157 1122 194 1085 194"></polygon>
                <polygon id="Rectangle-path" fill="#228CDB" points="1133 157 1170 157 1170 194 1133 194"></polygon>
                <polygon id="Rectangle-path" fill="#228CDB" points="1184 157 1221 157 1221 194 1184 194"></polygon>
                <polygon id="Rectangle-path" fill="#228CDB" opacity="0.2" points="1233 157 1270 157 1270 194 1233 194"></polygon>
                <polygon id="Rectangle-path" fill="#228CDB" opacity="0.2" points="1281 157 1318 157 1318 194 1281 194"></polygon>
                <polygon id="Rectangle-path" fill="#228CDB" points="1331 157 1368 157 1368 194 1331 194"></polygon>
                <polygon id="Rectangle-path" fill="#228CDB" points="1378 157 1415 157 1415 194 1378 194"></polygon>
                <path d="M283,221 L283,238 L270,238 C274.132029,232.21157 278.465363,226.544904 283,221 Z" id="Shape" fill="#228CDB"></path>
                <polygon id="Rectangle-path" fill="#228CDB" opacity="0.2" points="296 202 333 202 333 239 296 239"></polygon>
                <polygon id="Rectangle-path" fill="#228CDB" points="346 202 383 202 383 239 346 239"></polygon>
                <polygon id="Rectangle-path" fill="#228CDB" opacity="0.2" points="393 202 430 202 430 239 393 239"></polygon>
                <polygon id="Rectangle-path" fill="#228CDB" opacity="0.7" points="443 202 480 202 480 239 443 239"></polygon>
                <polygon id="Rectangle-path" fill="#228CDB" opacity="0.2" points="494 202 531 202 531 239 494 239"></polygon>
                <polygon id="Rectangle-path" fill="#228CDB" opacity="0.4" points="544 202 581 202 581 239 544 239"></polygon>
                <polygon id="Rectangle-path" fill="#228CDB" points="591 202 628 202 628 239 591 239"></polygon>
                <polygon id="Rectangle-path" fill="#228CDB" opacity="0.4" points="642 202 679 202 679 239 642 239"></polygon>
                <polygon id="Rectangle-path" fill="#228CDB" opacity="0.2" points="692 202 729 202 729 239 692 239"></polygon>
                <polygon id="Rectangle-path" fill="#228CDB" opacity="0.4" points="739 202 776 202 776 239 739 239"></polygon>
                <polygon id="Rectangle-path" fill="#228CDB" points="790 202 827 202 827 239 790 239"></polygon>
                <polygon id="Rectangle-path" fill="#228CDB" opacity="0.4" points="838 202 875 202 875 239 838 239"></polygon>
                <polygon id="Rectangle-path" fill="#228CDB" opacity="0.4" points="887 202 924 202 924 239 887 239"></polygon>
                <polygon id="Rectangle-path" fill="#228CDB" opacity="0.2" points="935 202 972 202 972 239 935 239"></polygon>
                <polygon id="Rectangle-path" fill="#228CDB" opacity="0.4" points="985 202 1022 202 1022 239 985 239"></polygon>
                <polygon id="Rectangle-path" fill="#228CDB" opacity="0.4" points="1032 202 1069 202 1069 239 1032 239"></polygon>
                <polygon id="Rectangle-path" fill="#228CDB" opacity="0.2" points="1085 202 1122 202 1122 239 1085 239"></polygon>
                <polygon id="Rectangle-path" fill="#228CDB" opacity="0.2" points="1133 202 1170 202 1170 239 1133 239"></polygon>
                <polygon id="Rectangle-path" fill="#228CDB" opacity="0.4" points="1184 202 1221 202 1221 239 1184 239"></polygon>
                <polygon id="Rectangle-path" fill="#228CDB" opacity="0.2" points="1233 202 1270 202 1270 239 1233 239"></polygon>
                <polygon id="Rectangle-path" fill="#228CDB" points="1281 202 1318 202 1318 239 1281 239"></polygon>
                <polygon id="Rectangle-path" fill="#228CDB" points="1331 202 1368 202 1368 239 1331 239"></polygon>
                <polygon id="Rectangle-path" fill="#228CDB" points="1378 202 1415 202 1415 239 1378 239"></polygon>
                <path d="M187,261 L187,285 L150,285 L150,273.275939 C161.971955,268.300411 174.342551,264.196069 187,261 Z" id="Shape" fill="#228CDB" opacity="0.2"></path>
                <polygon id="Shape" fill="#228CDB" opacity="0.2" points="235 250 235 281 198 281 198 254.599407"></polygon>
                <polygon id="Rectangle-path" fill="#228CDB" points="249 249 286 249 286 286 249 286"></polygon>
                <polygon id="Rectangle-path" fill="#228CDB" opacity="0.7" points="296 249 333 249 333 286 296 286"></polygon>
                <polygon id="Rectangle-path" fill="#228CDB" points="346 249 383 249 383 286 346 286"></polygon>
                <polygon id="Rectangle-path" fill="#228CDB" opacity="0.7" points="393 249 430 249 430 286 393 286"></polygon>
                <polygon id="Rectangle-path" fill="#228CDB" opacity="0.7" points="443 249 480 249 480 286 443 286"></polygon>
                <polygon id="Rectangle-path" fill="#228CDB" opacity="0.2" points="494 249 531 249 531 286 494 286"></polygon>
                <polygon id="Rectangle-path" fill="#228CDB" opacity="0.4" points="544 249 581 249 581 286 544 286"></polygon>
                <polygon id="Rectangle-path" fill="#228CDB" opacity="0.4" points="591 249 628 249 628 286 591 286"></polygon>
                <polygon id="Rectangle-path" fill="#228CDB" points="642 249 679 249 679 286 642 286"></polygon>
                <polygon id="Rectangle-path" fill="#228CDB" opacity="0.2" points="692 249 729 249 729 286 692 286"></polygon>
                <polygon id="Rectangle-path" fill="#228CDB" opacity="0.4" points="739 249 776 249 776 286 739 286"></polygon>
                <polygon id="Rectangle-path" fill="#228CDB" points="790 249 827 249 827 286 790 286"></polygon>
                <polygon id="Rectangle-path" fill="#228CDB" opacity="0.2" points="838 249 875 249 875 286 838 286"></polygon>
                <polygon id="Rectangle-path" fill="#228CDB" opacity="0.4" points="887 249 924 249 924 286 887 286"></polygon>
                <polygon id="Rectangle-path" fill="#228CDB" opacity="0.2" points="935 249 972 249 972 286 935 286"></polygon>
                <polygon id="Rectangle-path" fill="#228CDB" points="985 249 1022 249 1022 286 985 286"></polygon>
                <polygon id="Rectangle-path" fill="#228CDB" opacity="0.2" points="1032 249 1069 249 1069 286 1032 286"></polygon>
                <polygon id="Rectangle-path" fill="#228CDB" opacity="0.7" points="1085 249 1122 249 1122 286 1085 286"></polygon>
                <polygon id="Rectangle-path" fill="#228CDB" opacity="0.7" points="1133 249 1170 249 1170 286 1133 286"></polygon>
                <polygon id="Rectangle-path" fill="#228CDB" opacity="0.4" points="1184 249 1221 249 1221 286 1184 286"></polygon>
                <polygon id="Rectangle-path" fill="#228CDB" opacity="0.2" points="1233 249 1270 249 1270 286 1233 286"></polygon>
                <polygon id="Rectangle-path" fill="#228CDB" points="1281 249 1318 249 1318 286 1281 286"></polygon>
                <polygon id="Rectangle-path" fill="#228CDB" points="1331 249 1368 249 1368 286 1331 286"></polygon>
                <polygon id="Rectangle-path" fill="#228CDB" points="1378 249 1415 249 1415 286 1378 286"></polygon>
                <polygon id="Rectangle-path" fill="#228CDB" opacity="0.2" points="150 293 187 293 187 330 150 330"></polygon>
                <polygon id="Rectangle-path" fill="#228CDB" opacity="0.2" points="198 293 235 293 235 330 198 330"></polygon>
                <polygon id="Rectangle-path" fill="#228CDB" opacity="0.2" points="249 293 286 293 286 330 249 330"></polygon>
                <polygon id="Rectangle-path" fill="#228CDB" opacity="0.2" points="296 293 333 293 333 330 296 330"></polygon>
                <polygon id="Rectangle-path" fill="#228CDB" points="346 293 383 293 383 330 346 330"></polygon>
                <polygon id="Rectangle-path" fill="#228CDB" opacity="0.7" points="393 293 430 293 430 330 393 330"></polygon>
                <polygon id="Rectangle-path" fill="#228CDB" opacity="0.7" points="443 293 480 293 480 330 443 330"></polygon>
                <polygon id="Rectangle-path" fill="#228CDB" opacity="0.2" points="494 293 531 293 531 330 494 330"></polygon>
                <polygon id="Rectangle-path" fill="#228CDB" opacity="0.2" points="544 293 581 293 581 330 544 330"></polygon>
                <polygon id="Rectangle-path" fill="#228CDB" opacity="0.4" points="591 293 628 293 628 330 591 330"></polygon>
                <polygon id="Rectangle-path" fill="#228CDB" opacity="0.4" points="642 293 679 293 679 330 642 330"></polygon>
                <rect id="Rectangle-path" fill="#228CDB" x="692" y="293" width="37" height="37"></rect>
                <polygon id="Rectangle-path" fill="#228CDB" opacity="0.2" points="739 293 776 293 776 330 739 330"></polygon>
                <polygon id="Rectangle-path" fill="#228CDB" opacity="0.4" points="790 293 827 293 827 330 790 330"></polygon>
                <polygon id="Rectangle-path" fill="#228CDB" opacity="0.4" points="838 293 875 293 875 330 838 330"></polygon>
                <polygon id="Rectangle-path" fill="#228CDB" opacity="0.4" points="887 293 924 293 924 330 887 330"></polygon>
                <polygon id="Rectangle-path" fill="#228CDB" opacity="0.4" points="935 293 972 293 972 330 935 330"></polygon>
                <rect id="Rectangle-path" fill="#228CDB" opacity="0.2" x="985" y="293" width="37" height="37"></rect>
                <polygon id="Rectangle-path" fill="#228CDB" opacity="0.2" points="1032 293 1069 293 1069 330 1032 330"></polygon>
                <polygon id="Rectangle-path" fill="#228CDB" opacity="0.2" points="1085 293 1122 293 1122 330 1085 330"></polygon>
                <polygon id="Rectangle-path" fill="#228CDB" opacity="0.2" points="1133 293 1170 293 1170 330 1133 330"></polygon>
                <polygon id="Rectangle-path" fill="#228CDB" opacity="0.7" points="1184 293 1221 293 1221 330 1184 330"></polygon>
                <polygon id="Rectangle-path" fill="#228CDB" opacity="0.7" points="1233 293 1270 293 1270 330 1233 330"></polygon>
                <polygon id="Rectangle-path" fill="#228CDB" opacity="0.4" points="1281 293 1318 293 1318 330 1281 330"></polygon>
                <polygon id="Rectangle-path" fill="#228CDB" opacity="0.2" points="1331 293 1368 293 1368 330 1331 330"></polygon>
                <polygon id="Rectangle-path" fill="#228CDB" points="1378 293 1415 293 1415 330 1378 330"></polygon>
                <polygon id="Rectangle-path" fill="#228CDB" opacity="0.2" points="150 339 187 339 187 376 150 376"></polygon>
                <polygon id="Rectangle-path" fill="#228CDB" opacity="0.2" points="198 339 235 339 235 376 198 376"></polygon>
                <polygon id="Rectangle-path" fill="#228CDB" opacity="0.4" points="249 339 286 339 286 376 249 376"></polygon>
                <polygon id="Rectangle-path" fill="#228CDB" opacity="0.2" points="296 339 333 339 333 376 296 376"></polygon>
                <polygon id="Rectangle-path" fill="#228CDB" opacity="0.2" points="346 339 383 339 383 376 346 376"></polygon>
                <polygon id="Rectangle-path" fill="#228CDB" opacity="0.7" points="393 339 430 339 430 376 393 376"></polygon>
                <polygon id="Rectangle-path" fill="#228CDB" opacity="0.7" points="443 339 480 339 480 376 443 376"></polygon>
                <polygon id="Rectangle-path" fill="#228CDB" opacity="0.2" points="494 339 531 339 531 376 494 376"></polygon>
                <polygon id="Rectangle-path" fill="#228CDB" opacity="0.2" points="544 339 581 339 581 376 544 376"></polygon>
                <polygon id="Rectangle-path" fill="#228CDB" opacity="0.4" points="591 339 628 339 628 376 591 376"></polygon>
                <polygon id="Rectangle-path" fill="#228CDB" points="642 339 679 339 679 376 642 376"></polygon>
                <polygon id="Rectangle-path" fill="#228CDB" opacity="0.2" points="692 339 729 339 729 376 692 376"></polygon>
                <polygon id="Rectangle-path" fill="#228CDB" points="739 339 776 339 776 376 739 376"></polygon>
                <polygon id="Rectangle-path" fill="#228CDB" points="790 339 827 339 827 376 790 376"></polygon>
                <polygon id="Rectangle-path" fill="#228CDB" points="838 339 875 339 875 376 838 376"></polygon>
                <polygon id="Rectangle-path" fill="#228CDB" opacity="0.2" points="887 339 924 339 924 376 887 376"></polygon>
                <polygon id="Rectangle-path" fill="#228CDB" points="935 339 972 339 972 376 935 376"></polygon>
                <polygon id="Rectangle-path" fill="#228CDB" opacity="0.2" points="985 339 1022 339 1022 376 985 376"></polygon>
                <polygon id="Rectangle-path" fill="#228CDB" opacity="0.2" points="1032 339 1069 339 1069 376 1032 376"></polygon>
                <polygon id="Rectangle-path" fill="#228CDB" opacity="0.2" points="1085 339 1122 339 1122 376 1085 376"></polygon>
                <polygon id="Rectangle-path" fill="#228CDB" opacity="0.2" points="1133 339 1170 339 1170 376 1133 376"></polygon>
                <polygon id="Rectangle-path" fill="#228CDB" opacity="0.2" points="1184 339 1221 339 1221 376 1184 376"></polygon>
                <polygon id="Rectangle-path" fill="#228CDB" opacity="0.7" points="1233 339 1270 339 1270 376 1233 376"></polygon>
                <polygon id="Rectangle-path" fill="#228CDB" opacity="0.2" points="1281 339 1318 339 1318 376 1281 376"></polygon>
                <polygon id="Rectangle-path" fill="#228CDB" opacity="0.2" points="1331 339 1368 339 1368 376 1331 376"></polygon>
                <polygon id="Rectangle-path" fill="#228CDB" points="1378 339 1415 339 1415 376 1378 376"></polygon>
                <polygon id="Rectangle-path" fill="#228CDB" opacity="0.2" points="150 383 187 383 187 420 150 420"></polygon>
                <polygon id="Rectangle-path" fill="#228CDB" opacity="0.2" points="198 383 235 383 235 420 198 420"></polygon>
                <polygon id="Rectangle-path" fill="#228CDB" opacity="0.2" points="249 383 286 383 286 420 249 420"></polygon>
                <polygon id="Rectangle-path" fill="#228CDB" opacity="0.4" points="296 383 333 383 333 420 296 420"></polygon>
                <polygon id="Rectangle-path" fill="#228CDB" opacity="0.2" points="346 383 383 383 383 420 346 420"></polygon>
                <polygon id="Rectangle-path" fill="#228CDB" opacity="0.2" points="393 383 430 383 430 420 393 420"></polygon>
                <polygon id="Rectangle-path" fill="#228CDB" opacity="0.7" points="443 383 480 383 480 420 443 420"></polygon>
                <polygon id="Rectangle-path" fill="#228CDB" opacity="0.2" points="494 383 531 383 531 420 494 420"></polygon>
                <polygon id="Rectangle-path" fill="#228CDB" opacity="0.2" points="544 383 581 383 581 420 544 420"></polygon>
                <polygon id="Rectangle-path" fill="#228CDB" opacity="0.2" points="591 383 628 383 628 420 591 420"></polygon>
                <polygon id="Rectangle-path" fill="#228CDB" points="642 383 679 383 679 420 642 420"></polygon>
                <polygon id="Rectangle-path" fill="#228CDB" opacity="0.2" points="692 383 729 383 729 420 692 420"></polygon>
                <polygon id="Rectangle-path" fill="#228CDB" points="739 383 776 383 776 420 739 420"></polygon>
                <polygon id="Rectangle-path" fill="#228CDB" points="790 383 827 383 827 420 790 420"></polygon>
                <polygon id="Rectangle-path" fill="#228CDB" opacity="0.2" points="838 383 875 383 875 420 838 420"></polygon>
                <polygon id="Rectangle-path" fill="#228CDB" opacity="0.2" points="887 383 924 383 924 420 887 420"></polygon>
                <polygon id="Rectangle-path" fill="#228CDB" opacity="0.2" points="935 383 972 383 972 420 935 420"></polygon>
                <polygon id="Rectangle-path" fill="#228CDB" opacity="0.2" points="985 383 1022 383 1022 420 985 420"></polygon>
                <polygon id="Rectangle-path" fill="#228CDB" opacity="0.2" points="1032 383 1069 383 1069 420 1032 420"></polygon>
                <polygon id="Rectangle-path" fill="#228CDB" opacity="0.2" points="1085 383 1122 383 1122 420 1085 420"></polygon>
                <polygon id="Rectangle-path" fill="#228CDB" opacity="0.2" points="1133 383 1170 383 1170 420 1133 420"></polygon>
                <polygon id="Rectangle-path" fill="#228CDB" opacity="0.2" points="1184 383 1221 383 1221 420 1184 420"></polygon>
                <polygon id="Rectangle-path" fill="#228CDB" opacity="0.2" points="1233 383 1270 383 1270 420 1233 420"></polygon>
                <polygon id="Rectangle-path" fill="#228CDB" opacity="0.2" points="1281 383 1318 383 1318 420 1281 420"></polygon>
                <polygon id="Rectangle-path" fill="#228CDB" opacity="0.4" points="1331 383 1368 383 1368 420 1331 420"></polygon>
                <polygon id="Rectangle-path" fill="#228CDB" points="1378 383 1415 383 1415 420 1378 420"></polygon>
                <polygon id="Rectangle-path" fill="#228CDB" opacity="0.7" points="150 430 187 430 187 467 150 467"></polygon>
                <polygon id="Rectangle-path" fill="#228CDB" opacity="0.7" points="198 430 235 430 235 467 198 467"></polygon>
                <polygon id="Rectangle-path" fill="#228CDB" opacity="0.7" points="249 430 286 430 286 467 249 467"></polygon>
                <rect id="Rectangle-path" fill="#228CDB" opacity="0.7" x="296" y="430" width="37" height="37"></rect>
                <polygon id="Rectangle-path" fill="#228CDB" opacity="0.7" points="346 430 383 430 383 467 346 467"></polygon>
                <polygon id="Rectangle-path" fill="#228CDB" opacity="0.2" points="393 430 430 430 430 467 393 467"></polygon>
                <polygon id="Rectangle-path" fill="#228CDB" opacity="0.2" points="443 430 480 430 480 467 443 467"></polygon>
                <polygon id="Rectangle-path" fill="#228CDB" opacity="0.2" points="494 430 531 430 531 467 494 467"></polygon>
                <polygon id="Rectangle-path" fill="#228CDB" opacity="0.2" points="544 430 581 430 581 467 544 467"></polygon>
                <polygon id="Rectangle-path" fill="#228CDB" opacity="0.2" points="591 430 628 430 628 467 591 467"></polygon>
                <polygon id="Rectangle-path" fill="#228CDB" opacity="0.2" points="642 430 679 430 679 467 642 467"></polygon>
                <polygon id="Rectangle-path" fill="#228CDB" points="692 430 729 430 729 467 692 467"></polygon>
                <polygon id="Rectangle-path" fill="#228CDB" opacity="0.2" points="739 430 776 430 776 467 739 467"></polygon>
                <polygon id="Rectangle-path" fill="#228CDB" opacity="0.2" points="790 430 827 430 827 467 790 467"></polygon>
                <polygon id="Rectangle-path" fill="#228CDB" opacity="0.2" points="838 430 875 430 875 467 838 467"></polygon>
                <polygon id="Rectangle-path" fill="#228CDB" points="887 430 924 430 924 467 887 467"></polygon>
                <polygon id="Rectangle-path" fill="#228CDB" opacity="0.2" points="935 430 972 430 972 467 935 467"></polygon>
                <polygon id="Rectangle-path" fill="#228CDB" opacity="0.2" points="985 430 1022 430 1022 467 985 467"></polygon>
                <polygon id="Rectangle-path" fill="#228CDB" opacity="0.2" points="1032 430 1069 430 1069 467 1032 467"></polygon>
                <polygon id="Rectangle-path" fill="#228CDB" opacity="0.2" points="1085 430 1122 430 1122 467 1085 467"></polygon>
                <polygon id="Rectangle-path" fill="#228CDB" opacity="0.2" points="1133 430 1170 430 1170 467 1133 467"></polygon>
                <polygon id="Rectangle-path" fill="#228CDB" opacity="0.2" points="1184 430 1221 430 1221 467 1184 467"></polygon>
                <polygon id="Rectangle-path" fill="#228CDB" opacity="0.2" points="1233 430 1270 430 1270 467 1233 467"></polygon>
                <polygon id="Rectangle-path" fill="#228CDB" opacity="0.2" points="1281 430 1318 430 1318 467 1281 467"></polygon>
                <polygon id="Rectangle-path" fill="#228CDB" opacity="0.2" points="1331 430 1368 430 1368 467 1331 467"></polygon>
                <polygon id="Rectangle-path" fill="#228CDB" points="1378 430 1415 430 1415 467 1378 467"></polygon>
                <circle id="Oval" fill="#767D9F" cx="1036.5" cy="512.5" r="48.5"></circle>
                <path d="M1033.25254,450.45902 C1038.13199,471.765298 1042.27298,493.230579 1045.67551,514.854862 C1046.69907,521.280417 1047.61046,528.056711 1045.28291,534.131526 C1043.33394,539.19621 1039.36588,543.152556 1036.25313,547.585908 C1033.14037,552.01926 1030.78478,557.701246 1032.67767,562.77996 C1034.57056,567.858673 1040.09499,570.636533 1045.36704,572.067552 C1060.45407,576.136134 1076.53663,573.17589 1091.55355,568.770597 C1098.35282,567.019172 1104.87145,564.317626 1110.91711,560.745668 C1117.28283,556.705145 1122.49879,551.093307 1127.29412,545.313113 C1149.18153,518.75509 1163.51141,486.879849 1177,455.201023 C1159.41656,456.802287 1142.13779,449.836614 1130.57512,436.485543 C1125.05069,429.98984 1120.9985,420.940751 1124.11126,413 C1114.98332,418.008566 1104.14477,418.345276 1094.31577,421.768497 C1088.22022,424.097881 1082.35299,426.986244 1076.78901,430.396698 C1070.07743,434.27822 1063.40324,438.234565 1056.76644,442.265736 C1049.18086,446.839384 1042.07201,450.907967 1033.25254,450.45902 Z" id="Shape" fill="#AE6E79"></path>
                <path d="M1136.18868,488.372917 C1127.56221,505.135383 1116.33791,521.249343 1100.31328,531.230693 C1084.28865,541.212043 1062.7154,543.91885 1046.66254,534.050284 C1038.75611,529.228784 1032.76982,521.897848 1025.86582,515.722945 C1018.96181,509.548042 1010.33534,504.26131 1001.05941,505.064893 C990.837529,505.953064 982.832274,513.918407 975.984745,521.5454 C965.593443,533.133917 955.555107,545.215862 948.199308,558.93317 C934.080692,585.296341 930.73458,616.114466 931.355799,646.002125 C931.977018,675.889785 936.311433,705.622367 936.410264,735.510027 C936.55145,772.277487 930.311021,808.74889 924,844.966531 C982.027512,837.832967 1040.12562,853.425302 1098.2802,859.332344 C1135.49687,863.15289 1172.99591,863.068302 1210.41025,862.969616 C1216.98952,862.969616 1223.99236,862.800441 1229.47038,859.163169 C1232.8187,856.724052 1235.52647,853.512378 1237.36269,849.802128 C1242.5301,840.28601 1244.60554,829.430587 1246.04563,818.702045 C1249.70236,791.60578 1249.81531,764.171164 1249.91414,736.821136 C1250.16827,670.560759 1250.40829,604.060716 1241.97947,538.321963 C1239.90404,522.151612 1237.24974,505.896672 1231.03755,490.769569 C1224.82535,475.642466 1214.68819,461.727787 1200.5131,453.621464 C1191.40659,448.405221 1170.29926,439.32614 1159.56911,444.584676 C1147.52593,450.449424 1141.9632,477.150947 1136.18868,488.372917 Z" id="Shape" fill="#767D9F"></path>
                <path d="M1142.33798,674.502387 C1140.14545,633.546499 1131.21973,589.836681 1150.21693,553.4848 C1154.8849,544.559242 1138.13681,533.416416 1143.314,524.773311 C1149.63205,514.235502 1154.42305,502.857241 1157.54423,490.977642 C1158.61927,486.896176 1159.48214,482.574624 1158.46367,478.479035 C1156.58234,471.008117 1149.18432,466.55946 1142.90379,462.011944 C1135.97257,456.984256 1132.40794,441.661105 1130.17298,433.371068 C1127.93801,425.081032 1147.95368,435.065795 1156.00238,432.114146 C1167.17721,428.03268 1181.37914,430.603015 1192.52567,434.740972 C1198.74963,437.028853 1205.5111,437.226571 1212.14527,437.396043 C1225.03168,437.734989 1237.96053,438.059811 1250.74793,436.478067 C1256.49094,435.757808 1262.2481,434.670358 1268.0194,434.995181 C1282.74471,435.828422 1295.54625,445.883798 1304.25978,457.775128 C1312.97332,469.666458 1318.5183,483.520846 1325.6617,496.400767 C1331.61689,507.134034 1338.71785,517.274147 1343.79603,528.445218 C1348.29425,538.331122 1351.13747,548.951407 1353.95239,559.515202 L1361.20896,586.616701 C1362.47837,590.493663 1363.081,594.557261 1362.99127,598.635136 C1362.62349,602.970811 1360.69973,607.009909 1358.74767,610.865411 C1351.36617,625.155517 1342.51539,638.64 1332.3383,651.10104 C1317.07547,669.785398 1298.54506,686.633803 1289.47789,709.004191 C1285.94156,717.717909 1283.97535,726.982414 1282.17889,736.218672 C1274.93589,773.159622 1269.78822,810.479483 1266.76046,848 C1250.23204,840.363716 1232.90661,834.580445 1215.10165,830.756159 C1206.22616,828.860224 1197.25429,827.445878 1188.22549,826.519343 C1180.31824,825.700225 1170.11944,827.253725 1162.59411,825.107071 C1150.00475,821.534023 1148.61851,800.27933 1146.70889,789.150626 C1143.65349,771.426613 1143.04524,753.3919 1142.93208,735.484291 C1142.79063,715.119329 1143.42717,694.796735 1142.33798,674.502387 Z" id="Shape" fill="#4C4981"></path>
                <path d="M866.468718,597.071209 C872.440201,630.975582 879.021598,664.978842 892,696.834825 C891.673767,697.145615 891.347534,697.428151 891.021301,697.710688 C889.872393,698.685439 888.680933,699.603682 887.432737,700.536052 C884.525008,702.570314 881.333598,704.293787 878.92231,706.949629 C878.009236,707.96601 877.288414,709.138602 876.794703,710.410701 C875.893574,712.419928 875.893574,714.716163 876.794703,716.72539 C870.028914,719.706149 862.170952,718.787906 854.582488,718.505369 C848.043643,718.265214 841.703375,718.505369 836.455278,722.079455 C829.164679,727.08035 826.966152,736.686589 825.788876,745.416965 C825.353899,748.600209 824.980385,751.788162 824.668336,754.980823 C824.365743,757.947456 824.119887,760.923506 823.930766,763.908975 C823.287809,773.785091 823.197838,783.689215 823.661269,793.5753 C823.736917,795.383534 823.836206,797.191767 823.959134,799 C800.782404,798.449054 779.66236,786.413002 759.67704,774.715993 C755.109778,772.046024 750.400675,769.234786 747.436209,764.827218 C744.704677,760.498465 743.548039,755.366955 744.159695,750.290718 C744.159695,749.570251 744.287351,748.878036 744.386639,748.143442 C745.021872,743.951311 746.110933,739.839996 747.634786,735.88136 C753.887532,719.019648 763.104395,703.401279 774.853969,689.757287 C779.931857,683.852276 785.648027,678.074406 788.016763,670.657824 C789.052198,667.422782 789.435168,663.989964 790.484787,660.769049 C795.19389,646.811749 812.186376,640.214523 818.001835,626.666901 C819.42024,623.431859 820.072706,619.886027 821.831527,616.778126 C823.41491,614.195186 825.457694,611.921286 827.859747,610.067885 C828.895182,609.206149 829.973169,608.372667 831.036973,607.539184 C841.003629,599.760014 850.606227,591.542913 859.844769,582.88788 C861.565767,581.277423 863.267852,579.648129 864.951025,578 C864.726287,584.393885 865.235484,590.792416 866.468718,597.071209 Z" id="Shape" fill="#4C4981"></path>
                <path d="M1007.66675,497.786129 C1005.63433,499.933635 1003.43254,501.953986 1001.2731,503.960208 L1000.69442,504.482956 L998.407947,506.602205 C994.257966,510.187554 990.6663,514.373343 987.751852,519.021004 L987.511913,519.416597 C980.313756,532.315759 982.981308,548.195998 984.985501,562.847072 C987.471354,581.104723 988.589481,599.522926 988.330527,617.947546 C987.963562,643.378533 984.971387,668.639981 984.914931,694.042712 C984.914931,699.807069 985.041957,705.557298 985.29601,711.321655 C985.705317,720.688735 986.411018,730.041687 987.25786,739.394639 C988.175273,749.651804 989.276167,759.894841 990.306492,770.137878 C991.125106,778.063869 991.901378,785.975732 992.550623,793.887594 C992.875246,797.984809 993.185755,802.067895 993.439807,806.16511 C993.736202,810.968741 993.976141,815.7865 994.117281,820.590131 C994.216079,823.64185 994.272535,826.67944 994.272535,829.731159 C994.272535,831.468943 994.272535,833.192599 994.272535,834.916254 C994.272535,838.222283 994.183147,841.518892 994.004369,844.806083 C993.816182,849.035162 993.529196,853.27366 993.143413,857.521577 C992.705878,862.141539 991.929606,867.185352 988.683378,870.434867 C988.485781,870.632664 988.274071,870.816332 988.06236,871 L983.489413,870.434867 C951.965591,866.656972 920.140292,866.088933 888.501963,868.739468 C889.193551,863.964093 889.828683,859.202847 890.4497,854.413345 C890.731981,852.152813 891.014261,849.878152 891.282428,847.603491 C891.592937,845.003879 891.889332,842.404267 892.171612,839.804655 C892.496235,836.97899 892.79263,834.153325 893.07491,831.327659 C893.80884,824.046862 894.453381,816.761355 895.008533,809.471138 C895.827147,798.837218 896.448165,788.18446 896.871586,777.512864 C897.078591,772.417248 897.23855,767.316922 897.351463,762.211887 C897.511422,755.882396 897.586697,749.548197 897.577287,743.209288 C897.577287,737.049337 897.525536,730.879968 897.422033,724.70118 C897.422033,722.666701 897.337349,720.632222 897.16798,718.611871 C897.046472,716.792748 896.796499,714.984515 896.419936,713.200722 C895.371947,709.087593 893.954781,705.077679 892.185726,701.219901 C891.875217,700.485228 891.578823,699.807069 891.282428,699.030011 C891.11306,698.648546 890.957805,698.252953 890.802551,697.871488 C898.932235,690.623657 904.718989,680.917496 910.279918,671.366748 C919.298786,655.981 928.529364,639.917093 930.039566,622.143658 C931.549768,604.370224 922.728496,584.406899 905.763427,578.981621 C901.148138,577.568789 896.264682,577.173195 891.508253,576.339624 C887.01999,575.548438 877.662385,573.75414 872.468421,570.532882 C869.645614,573.433898 866.822807,576.283111 864,579.08052 C864.171206,574.812344 865.21352,570.62444 867.062745,566.774747 L869.066938,566.873645 C868.903645,566.421089 868.827033,565.941778 868.841114,565.460813 C868.841114,563.949082 869.885552,562.239554 872.11557,560.346359 C878.76328,554.695028 889.221779,553.437607 893.413647,545.794182 C895.163787,542.615309 895.460182,538.828918 896.871586,535.494633 C900.922313,525.986269 912.552278,522.482444 919.552838,514.881404 C926.553399,507.280365 928.30354,496.51458 933.963267,488.037584 C938.190946,481.847194 944.054991,476.955541 950.900108,473.909258 C951.46467,473.640819 952.043345,473.372381 952.622021,473.1322 C964.336669,468.116644 978.253107,466.972249 990.391176,467.000506 C995.105263,467.000506 1007.32802,467.141789 1013.31237,469.529476 C1014.28297,469.876613 1015.17179,470.42006 1015.92346,471.125977 C1022.30301,478.077114 1012.38084,492.756445 1007.66675,497.786129 Z" id="Shape" fill="#4C4981"></path>
                <path d="M867.428907,565.606742 C889.457937,559.051162 913.226115,561.499203 933.414847,572.403067 C943.579562,577.985264 952.69957,585.772429 958.290163,595.820384 C966.69017,610.892316 966.323111,629.062368 965.730169,646.26949 C965.433699,654.880029 965.052522,663.797589 961.212518,671.528932 C956.765456,680.474403 948.379566,686.61482 939.824264,691.638798 C934.464773,695.018836 928.592993,697.529964 922.431308,699.077075 C912.944241,701.114577 903.090115,699.384096 893.532459,697.681526 C883.141862,695.783579 871.988911,693.494878 864.774787,685.847268 C860.539489,681.409421 858.224193,675.645803 855.937132,670.007784 C852.652423,661.86708 849.358303,653.735679 846.054771,645.613582 C840.337118,631.504579 838.402999,619.76801 845.955947,606.021849 C849.386538,599.755833 853.579483,593.894526 856.967721,587.586643 C858.66184,584.37688 864.732434,566.430116 867.428907,565.606742 Z" id="Shape" fill="#4C4981"></path>
                <path d="M1463,809.75441 L1463,852.24265 C1434.00177,864.351783 1402.89495,870.535003 1371.49426,870.431595 L990.246261,870.431595 C990.048349,870.630537 989.836301,870.815269 989.624253,871 L985.044019,870.431595 L306.872404,870.431595 C249.972882,870.431595 197.243636,854.999412 154,828.710702 L154,763.841533 L480.157953,726 L480.412411,726 L670.350789,742.171109 L719.503494,746.434143 L745.034062,748.608291 L797.8764,753.112897 L825.060941,755.429145 L864.643217,758.811152 L870.213009,759.280086 L898.740521,761.710016 L937.446332,764.907291 L991.871961,769.539788 L1082.60019,777.2843 L1146.42661,782.726774 L1251.23482,791.664935 L1271.16733,793.355939 L1273.31608,793.54067 L1275.1821,793.696982 L1301.50431,795.94218 L1330.39938,798.414739 L1333.74973,798.698942 L1463,809.75441 Z" id="Shape" fill="#504F60"></path>
                <polygon id="Shape" fill="#9C9CA1" points="1078 808.89185 670.787681 739 655 819.287112 841.663626 841.762972 899.138672 849 1057.24082 817.686752"></polygon>
                <path d="M868,843.486006 L1072.6099,806.122402 C1074.68261,805.736966 1076.82415,806.272189 1078.44805,807.581501 C1080.07196,808.890812 1081.00804,810.836998 1080.99995,812.887094 C1081.00916,816.201588 1078.57788,819.048558 1075.22296,819.651786 L875.401324,856 L868,843.486006 Z" id="Shape" fill="#9C9CA1"></path>
                <path d="M954.986448,723.336682 C961.306466,722.743785 967.710564,721.741508 973.399982,718.91819 C980.406653,715.40316 985.857844,709.347144 992.346022,704.886303 C1006.61161,695.004692 1025.69778,693.677733 1042.05135,699.352601 C1058.40492,705.027469 1072.05392,717.18185 1081.61102,731.693701 C1087.95906,741.363563 1092.7236,753.70146 1088.23933,764.3736 C1086.70083,767.63583 1084.76111,770.690163 1082.46583,773.464682 L1070.77871,788.851761 C1068.55847,792.086314 1065.88717,794.981729 1062.84715,797.448763 C1058.47499,800.653228 1053.03781,801.966071 1047.68472,802.7566 C1033.46117,804.845854 1018.98539,803.660061 1004.64974,804.619989 C980.028293,806.27163 955.981396,814.261618 931.303898,813.993403 C917.122394,813.83812 903.123064,810.958336 889.263868,808.078553 L827.927463,795.373625 C817.249296,793.171437 805.183807,789.952855 800.153017,780.198294 C797.896868,775.808035 797.476468,770.726064 797.210215,765.785259 C796.481521,752.176869 797.210215,737.043888 806.571128,727.23286 C815.371508,718.028845 829.286758,715.120828 839.796765,708.316633 C852.661015,699.973731 856.907058,702.669999 870.471974,708.937763 C896.935839,721.01094 926.05323,725.971735 954.986448,723.336682 Z" id="Shape" fill="#AE6E79"></path>
                <path d="M954.986448,723.336682 C961.306466,722.743785 967.710564,721.741508 973.399982,718.91819 C980.406653,715.40316 985.857844,709.347144 992.346022,704.886303 C1006.61161,695.004692 1025.69778,693.677733 1042.05135,699.352601 C1058.40492,705.027469 1072.05392,717.18185 1081.61102,731.693701 C1087.95906,741.363563 1092.7236,753.70146 1088.23933,764.3736 C1086.70083,767.63583 1084.76111,770.690163 1082.46583,773.464682 L1070.77871,788.851761 C1068.55847,792.086314 1065.88717,794.981729 1062.84715,797.448763 C1058.47499,800.653228 1053.03781,801.966071 1047.68472,802.7566 C1033.46117,804.845854 1018.98539,803.660061 1004.64974,804.619989 C980.028293,806.27163 955.981396,814.261618 931.303898,813.993403 C917.122394,813.83812 903.123064,810.958336 889.263868,808.078553 L827.927463,795.373625 C817.249296,793.171437 805.183807,789.952855 800.153017,780.198294 C797.896868,775.808035 797.476468,770.726064 797.210215,765.785259 C796.481521,752.176869 797.210215,737.043888 806.571128,727.23286 C815.371508,718.028845 829.286758,715.120828 839.796765,708.316633 C852.661015,699.973731 856.907058,702.669999 870.471974,708.937763 C896.935839,721.01094 926.05323,725.971735 954.986448,723.336682 Z" id="Shape" fill="#000000" opacity="0.05"></path>
                <path d="M1203.84577,703.246113 C1186.49556,709.970791 1169.04645,716.723783 1150.87677,720.730275 C1120.41501,727.454952 1088.54036,726.393161 1058.31879,734.080529 C1042.35321,738.157807 1026.48653,744.726755 1010.08295,743.395977 C1002.75009,742.801374 995.671542,740.564534 988.536481,738.865668 C948.452983,728.955617 902.887497,732.169305 870.334666,757.652293 C859.201145,766.358981 850.088048,777.217565 841.822681,788.798167 C838.241646,793.86257 837.103453,800.264255 838.718705,806.256252 C840.333956,812.248249 844.534053,817.205113 850.172821,819.774155 C862.832366,825.607693 876.393162,829.232127 890.270449,830.491167 C908.821606,832.133404 927.457537,829.500162 945.909793,826.86692 C973.291471,822.973686 1000.68728,819.066294 1027.99831,814.691715 C1037.80372,813.120264 1047.60913,811.492184 1057.47106,810.246349 C1128.44018,801.256517 1200.69504,812.185888 1271.84784,804.682563 C1279.03941,803.918074 1286.35815,802.927069 1292.8998,799.854953 C1309.45879,792.068484 1317.65351,771.540521 1314.23434,753.504229 C1310.81516,735.467936 1297.61883,720.475445 1281.73802,711.273254 C1268.42866,703.529258 1254.07377,700.400513 1239.25262,697.116039 C1225.49114,693.902351 1217.09861,698.149516 1203.84577,703.246113 Z" id="Shape" fill="#AE6E79"></path>
                <path d="M1354.24185,595.950917 C1361.99123,606.156756 1363.64182,619.848886 1362.80254,632.62727 C1361.96326,645.405654 1358.94184,658.043462 1358.49422,670.878076 C1357.87874,688.478227 1362.10314,706.022147 1361.38974,723.566067 C1360.88618,735.838377 1357.99065,747.871707 1354.56357,759.651999 C1350.52103,773.554994 1344.67402,788.498253 1331.90293,795.175626 C1314.9494,804.04599 1279.39177,799.055532 1261.557,806 C1263.17961,795.836335 1278.73433,781.117998 1280.35694,770.954333 C1281.47599,763.925518 1282.60902,756.699897 1281.40605,749.657026 C1279.86736,740.674201 1274.62184,732.703526 1268.39716,726.068325 C1258.49361,715.511046 1245.56865,707.568486 1231.37078,704.981883 C1217.1729,702.395279 1182.41259,704.517981 1171.05428,713.528921 C1169.65548,704.222771 1195.67326,695.254004 1204.82145,693.243763 C1209.38155,692.217556 1214.61309,692.793919 1218.26397,689.88399 C1225.258,684.3734 1220.18033,673.394392 1220.51605,664.580259 C1220.78182,657.551445 1224.86633,651.113051 1225.69163,644.084237 C1227.09043,632.838134 1219.78867,621.381167 1222.65622,610.345929 C1223.71931,606.269217 1226.08329,602.684521 1227.71989,598.804616 C1232.69964,586.92592 1230.51751,573.374366 1227.85977,560.750616 C1226.20918,552.822114 1224.60056,543.881462 1228.99281,537.119743 C1233.06333,530.807868 1244.61746,553.286015 1252.01715,552.245751 C1276.45428,548.801632 1298.56939,530.597003 1318.30654,545.498089 C1328.36395,553.089209 1329.67882,560.961481 1333.6934,571.799912 C1337.59606,582.118211 1347.70943,587.403879 1354.24185,595.950917 Z" id="Shape" fill="#000000" opacity="0.1"></path>
                <path d="M1357.24185,594.578595 C1364.99123,604.802524 1366.64182,618.518924 1365.80254,631.319958 C1364.96326,644.120993 1361.94184,656.781202 1361.49422,669.638566 C1360.87874,687.269914 1365.10314,704.844932 1364.38974,722.419949 C1363.88618,734.714012 1360.99065,746.768672 1357.56357,758.569845 C1353.52103,772.497483 1347.67402,787.46723 1334.90293,794.156439 C1317.9494,803.042526 1282.39177,798.043222 1264.557,805 C1266.17961,794.818319 1281.73433,780.073893 1283.35694,769.892212 C1284.47599,762.850939 1285.60902,755.612511 1284.40605,748.557155 C1282.86736,739.558408 1277.62184,731.573604 1271.39716,724.926642 C1261.49361,714.35065 1248.56865,706.394012 1234.37078,703.802823 C1220.1729,701.211635 1185.41259,703.338099 1174.05428,712.365011 C1172.65548,703.042366 1198.67326,694.057701 1207.82145,692.043897 C1212.38155,691.015871 1217.61309,691.593256 1221.26397,688.678169 C1228.258,683.157811 1223.18033,672.159342 1223.51605,663.329586 C1223.78182,656.288312 1227.86633,649.838506 1228.69163,642.797233 C1230.09043,631.531196 1222.78867,620.053921 1225.65622,608.999122 C1226.71931,604.915184 1229.08329,601.324135 1230.71989,597.437352 C1235.69964,585.5376 1233.51751,571.962026 1230.85977,559.3159 C1229.20918,551.373343 1227.60056,542.416844 1231.99281,535.643139 C1236.06333,529.320076 1244.02253,526.926043 1251.42222,525.869852 C1276.19763,522.49607 1301.3008,529.016441 1321.36249,544.036337 C1331.4199,551.640912 1332.73478,559.527138 1336.74935,570.384781 C1340.59606,580.72137 1350.70943,586.016407 1357.24185,594.578595 Z" id="Shape" fill="#4C4981"></path>
                <path d="M427.619824,528.566011 L504.432914,811.798231 C506.362685,818.903843 512.50158,824.07426 519.846392,824.78006 L865.582998,857.918258 C871.300611,858.468327 876.930663,856.218577 880.686897,851.882791 C884.443131,847.547006 885.859285,841.663385 884.486054,836.098636 L800.368869,494.455233 C798.301946,486.06939 790.464217,480.401293 781.833137,481.050543 L443.344115,506.309434 C438.082235,506.71731 433.276595,509.444532 430.235909,513.748399 C427.195223,518.052267 426.236132,523.484597 427.619824,528.566011 Z" id="Shape" fill="#9C9CA1"></path>
                <ellipse id="Oval" fill="#FFFFFF" cx="1111" cy="546.5" rx="38" ry="38.5"></ellipse>
                <path d="M1140.91362,477.604121 C1140.91362,477.604121 1148.60834,501.276341 1125.90418,511.231029 L1123,516.482162 L1137.22233,531 C1137.22233,531 1154.75597,497.90663 1152.85604,486.154763 C1152.85604,486.154763 1150.14185,474.22037 1140.91362,477.604121 Z" id="Shape" fill="#FFFFFF"></path>
                <ellipse id="Oval" fill="#228CDB" cx="1114.5" cy="550" rx="36.5" ry="36"></ellipse>
                <path d="M1152.62834,488 L1146.92134,478.611697 L1138.61016,477.438159 C1140.38321,446.525791 1132.33523,437.31697 1132.33523,437.31697 L1130.46521,437.137488 L1122.32026,436.350527 L1107,420.500863 L1107,416 C1128.52594,418.554171 1140.42477,428.743241 1146.85208,440.685714 C1158.21068,461.64372 1152.62834,488 1152.62834,488 Z" id="Shape" fill="#228CDB"></path>
                <path d="M1130.99822,434.187552 L1130.99822,440 L1122.66826,439.195851 L1107,423 C1107,423 1131.23905,428.40332 1130.99822,434.187552 Z" id="Shape" stroke="#4C4981" fill="#000000" opacity="0.1"></path>
                <path d="M1154.63684,493 L1149,483.067193 L1149,443 C1160.15054,465.115104 1154.63684,493 1154.63684,493 Z" id="Shape" stroke="#4C4981" fill="#000000" opacity="0.1"></path>
                <ellipse id="Oval" fill="#FFFFFF" transform="translate(1031.000000, 530.000000) rotate(-30.000000) translate(-1031.000000, -530.000000) " cx="1031" cy="530" rx="20" ry="36"></ellipse>
                <path d="M1035.89567,529.952438 C1046.4586,547.789123 1059.41889,559.703859 1049.39355,565.370796 C1039.36822,571.037734 1010.16397,568.204265 999.601039,550.353412 C989.038109,532.502559 998.627564,507.851382 1008.6529,502.184444 C1018.67824,496.517507 1025.31821,512.07325 1035.89567,529.952438 Z" id="Shape" fill="#228CDB"></path>
                <path d="M1126,398.846946 C1126,455.450583 1087.23362,510 1030.58374,510 C973.928306,510 928,464.109187 928,407.5 C928,350.890813 973.928306,305 1030.58374,305 C1087.23362,305.05628 1126,342.229238 1126,398.846946 Z" id="Shape" fill="#000000" opacity="0.1"></path>
                <ellipse id="Oval" fill="#AE6E79" cx="1031" cy="405.5" rx="103" ry="102.5"></ellipse>
                <path d="M1022.03881,359.146741 C1034.30062,363.621956 1041.55587,376.191837 1052.55897,383.19225 C1068.11605,393.01247 1088.36854,390.473242 1106.1319,385.619248 C1116.03186,382.93973 1126.38439,379.671 1136.12878,382.645124 C1137.56217,383.274651 1139.14334,383.498019 1140.6969,383.290453 C1142.81832,382.687211 1143.86489,380.358416 1144.55789,378.282141 C1156.60755,342.648772 1151.19086,302.28767 1133.00322,269.31979 C1128.30781,260.818285 1122.67898,252.597359 1114.92872,246.691198 C1108.81903,242.047637 1101.63449,239.003369 1094.39338,236.408025 C1081.16028,231.693673 1067.47347,228.341841 1053.54897,226.40543 C1051.08995,225.962234 1048.57841,225.881869 1046.09571,226.166939 C1042.6873,226.714066 1039.63245,228.537821 1036.59175,230.165171 C1023.5688,237.090018 1009.12658,240.98094 994.361349,241.542597 C974.561428,242.286128 951.932947,237.656596 936.672866,250.254535 C918.287225,265.363644 922.869493,294.838332 910.947112,315.348562 C903.055429,328.914494 887.837776,338.762771 885.3345,354.208574 C884.682641,358.929565 884.985535,363.732073 886.225497,368.335661 C892.052331,392.100592 915.246523,410.50649 939.968138,410.941385 C943.764597,411.228664 947.56632,410.455978 950.942951,408.710792 C953.155293,407.213212 955.108687,405.370303 956.727357,403.253556 C972.920863,384.230388 991.447932,347.979749 1022.03881,359.146741 Z" id="Shape" fill="#444053"></path>
                <path d="M1144.54534,369.536676 C1143.85249,371.586988 1142.80615,373.886663 1140.68518,374.482362 C1139.13194,374.687332 1137.5511,374.466757 1136.11802,373.845103 C1126.37569,370.908169 1115.9688,374.136025 1106.14163,376.782036 C1088.3679,381.575333 1068.07728,384.138223 1052.58005,374.385387 C1041.56514,367.458657 1034.32556,354.990543 1022.05221,350.640557 C991.46781,339.557788 972.944665,375.410544 956.712168,394.195836 C955.093841,396.286114 953.14086,398.105978 950.928987,399.584832 C947.553071,401.308194 943.752153,402.071219 939.956498,401.787532 C915.324957,401.358075 892.121536,383.182335 886.225237,359.714573 C885.900022,358.329227 885.617226,356.943881 885.405129,355.558535 C885.405129,355.683216 885.405129,355.794044 885.33443,355.918725 C884.682708,360.580682 884.985539,365.323137 886.225237,369.869159 C892.050837,393.336921 915.254258,411.512661 939.956498,411.942118 C943.752153,412.225805 947.553071,411.46278 950.928987,409.739418 C953.14086,408.260564 955.093841,406.4407 956.712168,404.350422 C972.944665,385.56513 991.46781,349.767789 1022.05221,360.795143 C1034.32556,365.214397 1041.56514,377.627097 1052.58005,384.539974 C1068.13384,394.237396 1088.3679,391.72992 1106.14163,386.936622 C1116.0395,384.290612 1126.37569,381.062755 1136.11802,383.999689 C1137.5511,384.621344 1139.13194,384.841919 1140.68518,384.636948 C1142.80615,384.041249 1143.85249,381.741575 1144.54534,379.691263 C1149.40449,365.29355 1151.55095,350.150138 1150.87998,335 C1150.4637,346.749647 1148.33046,358.380161 1144.54534,369.536676 Z" id="Shape" fill="#000000" opacity="0.1"></path>
            </g>
        </g>
    </g>
</svg>