<?xml version="1.0" encoding="UTF-8"?>
<svg width="49px" height="39px" viewBox="0 0 49 39" version="1.1" xmlns="http://www.w3.org/2000/svg" xmlns:xlink="http://www.w3.org/1999/xlink">
    <!-- Generator: Sketch 51.3 (57544) - http://www.bohemiancoding.com/sketch -->
    <title>twitter</title>
    <desc>Created with Sketch.</desc>
    <defs></defs>
    <g id="Page-1" stroke="none" stroke-width="1" fill="none" fill-rule="evenodd">
        <g transform="translate(-222.000000, -919.000000)" fill="#333333" fill-rule="nonzero" id="twitter">
            <g transform="translate(222.000000, 919.000000)">
                <path d="M48.2317647,4.58823529 C46.4652941,5.39117647 44.5611765,5.91882353 42.5882353,6.17117647 C44.6070588,4.95529412 46.1670588,3.02823529 46.9011765,0.711176471 C44.9970588,1.85823529 42.8864706,2.66117647 40.6611765,3.12 C38.8488235,1.14705882 36.3023529,0 33.4117647,0 C28.0205882,0 23.6158824,4.40470588 23.6158824,9.84176471 C23.6158824,10.6217647 23.7076471,11.3788235 23.8682353,12.09 C15.7011765,11.6770588 8.42882353,7.75411765 3.58823529,1.81235294 C2.73941176,3.25764706 2.25764706,4.95529412 2.25764706,6.74470588 C2.25764706,10.1629412 3.97823529,13.1911765 6.63941176,14.9117647 C5.01058824,14.9117647 3.49647059,14.4529412 2.16588235,13.7647059 C2.16588235,13.7647059 2.16588235,13.7647059 2.16588235,13.8335294 C2.16588235,18.6052941 5.56117647,22.5970588 10.0576471,23.4917647 C9.23176471,23.7211765 8.36,23.8358824 7.46529412,23.8358824 C6.84588235,23.8358824 6.22647059,23.7670588 5.63,23.6523529 C6.86882353,27.5294118 10.4705882,30.42 14.8064706,30.4888235 C11.4570588,33.15 7.21294118,34.71 2.57882353,34.71 C1.79882353,34.71 1.01882353,34.6641176 0.238823529,34.5723529 C4.59764706,37.3711765 9.78235294,39 15.3341176,39 C33.4117647,39 43.3452941,23.9964706 43.3452941,10.9888235 C43.3452941,10.5529412 43.3452941,10.14 43.3223529,9.70411765 C45.2494118,8.32764706 46.9011765,6.58411765 48.2317647,4.58823529 Z" id="Shape"></path>
            </g>
        </g>
    </g>
</svg>